<?xml version="1.0" encoding="UTF-8" standalone="no"?>
<!-- Generator: Adobe Fireworks CS6, Export SVG Extension by Aaron Beall (http://fireworks.abeall.com) . Version: 0.6.1  -->
<!DOCTYPE svg PUBLIC "-//W3C//DTD SVG 1.1//EN" "http://www.w3.org/Graphics/SVG/1.1/DTD/svg11.dtd">
<svg id="logo_editable-Page%201" viewBox="0 0 206 415" style="background-color:#ffffff00" version="1.1" xmlns="http://www.w3.org/2000/svg" xmlns:xlink="http://www.w3.org/1999/xlink" xml:space="preserve" x="0px" y="0px" width="206px" height="415px">
	<g id="Layer%201">
		<g>
			<g>
				<g>
					<path d="M 82.8745 34.8369 L 82.8745 15.6836 L 70.6572 15.6836 L 70.6572 34.8369 L 70.6572 36.0459 C 70.6572 40.5439 67.0107 44.1914 62.5122 44.1914 C 58.0137 44.1914 54.3672 40.5439 54.3672 36.0459 L 54.3672 34.8369 L 54.3672 15.6836 L 42.1494 23.3496 L 42.1494 34.8369 L 42.1494 36.0459 C 42.1494 47.292 51.2661 56.4092 62.5122 56.4092 C 73.7578 56.4092 82.8745 47.292 82.8745 36.0459 L 82.8745 34.8369 Z" fill="#cada2b"/>
				</g>
				<g>
					<path d="M 21.9063 15.6836 C 19.0098 15.6836 16.2563 16.2891 13.7612 17.3794 L 13.7612 1.6567 L 1.5439 9.3232 L 1.5439 34.6089 L 1.5942 34.6089 C 1.5615 35.084 1.5435 35.563 1.5435 36.0459 C 1.5435 47.2925 10.6611 56.4092 21.9063 56.4092 C 33.1528 56.4092 42.269 47.2925 42.269 36.0459 C 42.269 24.7998 33.1528 15.6836 21.9063 15.6836 ZM 21.9063 44.1914 C 17.4087 44.1914 13.7607 40.5439 13.7607 36.0459 C 13.7607 31.5483 17.4087 27.9009 21.9063 27.9009 C 26.4058 27.9009 30.0508 31.5483 30.0508 36.0459 C 30.0508 40.5439 26.4058 44.1914 21.9063 44.1914 Z" fill="#cada2b"/>
				</g>
				<g>
					<path d="M 204.6895 1.6567 L 192.4717 9.3232 L 192.4717 17.3794 C 189.9771 16.2891 187.2231 15.6836 184.3271 15.6836 C 173.0815 15.6836 163.9644 24.7998 163.9644 36.0459 C 163.9644 47.2925 173.0815 56.4092 184.3271 56.4092 C 195.5723 56.4092 204.6885 47.2925 204.6885 36.0459 C 204.6885 35.563 204.6699 35.084 204.6372 34.6089 L 204.6895 34.6089 L 204.6895 1.6567 ZM 184.3271 44.1914 C 179.8276 44.1914 176.1821 40.5439 176.1821 36.0459 C 176.1821 31.5483 179.8276 27.9009 184.3271 27.9009 C 188.8252 27.9009 192.4712 31.5483 192.4712 36.0459 C 192.4712 40.5439 188.8252 44.1914 184.3271 44.1914 Z" fill="#cada2b"/>
				</g>
				<g>
					<path d="M 123.4814 34.8369 L 123.4814 15.6836 L 111.2642 15.6836 L 111.2642 34.8369 L 111.2642 36.0459 C 111.2642 40.5439 107.6167 44.1914 103.1191 44.1914 C 98.6221 44.1914 94.9761 40.5439 94.9761 36.0459 L 94.9761 34.8369 L 94.9761 15.6836 L 82.7583 23.3496 L 82.7583 34.8369 L 82.7583 36.0459 C 82.7583 47.292 91.875 56.4092 103.1191 56.4092 C 114.3652 56.4092 123.4814 47.292 123.4814 36.0459 L 123.4814 34.8369 L 123.4814 34.8369 Z" fill="#cada2b"/>
				</g>
				<g>
					<path d="M 123.3628 36.0459 C 123.3628 24.8003 132.48 15.6836 143.7256 15.6836 C 154.9717 15.6836 164.0884 24.8003 164.0884 36.0459 L 164.0879 37.2554 L 164.0879 56.4092 L 151.8706 56.4092 L 151.8706 37.2554 L 151.8706 36.0459 C 151.8706 31.5479 148.2241 27.9009 143.7256 27.9009 C 139.2275 27.9009 135.5806 31.5479 135.5806 36.0459 L 135.5806 37.2554 L 135.5806 48.7427 L 123.3628 56.4092 L 123.3628 37.2554 L 123.3628 36.0459 Z" fill="#cada2b"/>
				</g>
			</g>
			<g>
				<g>
					<path d="M 60.2529 175.7401 L 60.2529 161.7475 L 51.3521 161.7475 L 51.3521 175.7401 L 51.3521 176.6234 C 51.3521 179.9095 48.6955 182.5742 45.4182 182.5742 C 42.1408 182.5742 39.4842 179.9095 39.4842 176.6234 L 39.4842 175.7401 L 39.4842 161.7475 L 30.5831 167.348 L 30.5831 175.7401 L 30.5831 176.6234 C 30.5831 184.8393 37.2249 191.5 45.4182 191.5 C 53.611 191.5 60.2529 184.8393 60.2529 176.6234 L 60.2529 175.7401 Z" fill="#cada2b"/>
				</g>
				<g>
					<path d="M 15.8351 161.7475 C 13.7249 161.7475 11.7189 162.1898 9.9011 162.9864 L 9.9011 151.5 L 1.0004 157.1008 L 1.0004 175.5736 L 1.037 175.5736 C 1.0132 175.9206 1 176.2706 1 176.6234 C 1 184.8397 7.6426 191.5 15.8351 191.5 C 24.0287 191.5 30.6702 184.8397 30.6702 176.6234 C 30.6702 168.4074 24.0287 161.7475 15.8351 161.7475 ZM 15.8351 182.5742 C 12.5585 182.5742 9.9008 179.9095 9.9008 176.6234 C 9.9008 173.3376 12.5585 170.6729 15.8351 170.6729 C 19.1132 170.6729 21.7687 173.3376 21.7687 176.6234 C 21.7687 179.9095 19.1132 182.5742 15.8351 182.5742 Z" fill="#cada2b"/>
				</g>
				<g>
					<path d="M 149 151.5 L 140.0989 157.1008 L 140.0989 162.9864 C 138.2814 162.1898 136.2751 161.7475 134.1652 161.7475 C 125.9724 161.7475 119.3301 168.4074 119.3301 176.6234 C 119.3301 184.8397 125.9724 191.5 134.1652 191.5 C 142.3578 191.5 148.9993 184.8397 148.9993 176.6234 C 148.9993 176.2706 148.9858 175.9206 148.9619 175.5736 L 149 175.5736 L 149 151.5 ZM 134.1652 182.5742 C 130.8872 182.5742 128.2313 179.9095 128.2313 176.6234 C 128.2313 173.3376 130.8872 170.6729 134.1652 170.6729 C 137.4422 170.6729 140.0985 173.3376 140.0985 176.6234 C 140.0985 179.9095 137.4422 182.5742 134.1652 182.5742 Z" fill="#cada2b"/>
				</g>
				<g>
					<path d="M 89.8367 175.7401 L 89.8367 161.7475 L 80.9359 161.7475 L 80.9359 175.7401 L 80.9359 176.6234 C 80.9359 179.9095 78.2786 182.5742 75.002 182.5742 C 71.7257 182.5742 69.0694 179.9095 69.0694 176.6234 L 69.0694 175.7401 L 69.0694 161.7475 L 60.1683 167.348 L 60.1683 175.7401 L 60.1683 176.6234 C 60.1683 184.8393 66.8102 191.5 75.002 191.5 C 83.1952 191.5 89.8367 184.8393 89.8367 176.6234 L 89.8367 175.7401 L 89.8367 175.7401 Z" fill="#cada2b"/>
				</g>
				<g>
					<path d="M 89.7503 176.6234 C 89.7503 168.4078 96.3925 161.7475 104.5854 161.7475 C 112.7786 161.7475 119.4205 168.4078 119.4205 176.6234 L 119.4201 177.507 L 119.4201 191.5 L 110.5193 191.5 L 110.5193 177.507 L 110.5193 176.6234 C 110.5193 173.3373 107.8627 170.6729 104.5854 170.6729 C 101.3084 170.6729 98.6514 173.3373 98.6514 176.6234 L 98.6514 177.507 L 98.6514 185.8992 L 89.7503 191.5 L 89.7503 177.507 L 89.7503 176.6234 Z" fill="#cada2b"/>
				</g>
			</g>
			<g>
				<g>
					<path d="M 60.2529 235.7401 L 60.2529 221.7475 L 51.3521 221.7475 L 51.3521 235.7401 L 51.3521 236.6234 C 51.3521 239.9095 48.6955 242.5742 45.4182 242.5742 C 42.1408 242.5742 39.4842 239.9095 39.4842 236.6234 L 39.4842 235.7401 L 39.4842 221.7475 L 30.5831 227.348 L 30.5831 235.7401 L 30.5831 236.6234 C 30.5831 244.8393 37.2249 251.5 45.4182 251.5 C 53.611 251.5 60.2529 244.8393 60.2529 236.6234 L 60.2529 235.7401 Z" fill="#ffffff"/>
				</g>
				<g>
					<path d="M 15.8351 221.7475 C 13.7249 221.7475 11.7189 222.1898 9.9011 222.9864 L 9.9011 211.5 L 1.0004 217.1008 L 1.0004 235.5736 L 1.037 235.5736 C 1.0132 235.9206 1 236.2706 1 236.6234 C 1 244.8397 7.6426 251.5 15.8351 251.5 C 24.0287 251.5 30.6702 244.8397 30.6702 236.6234 C 30.6702 228.4074 24.0287 221.7475 15.8351 221.7475 ZM 15.8351 242.5742 C 12.5585 242.5742 9.9008 239.9095 9.9008 236.6234 C 9.9008 233.3376 12.5585 230.6729 15.8351 230.6729 C 19.1132 230.6729 21.7687 233.3376 21.7687 236.6234 C 21.7687 239.9095 19.1132 242.5742 15.8351 242.5742 Z" fill="#ffffff"/>
				</g>
				<g>
					<path d="M 149 211.5 L 140.0989 217.1008 L 140.0989 222.9864 C 138.2814 222.1898 136.2751 221.7475 134.1652 221.7475 C 125.9724 221.7475 119.3301 228.4074 119.3301 236.6234 C 119.3301 244.8397 125.9724 251.5 134.1652 251.5 C 142.3578 251.5 148.9993 244.8397 148.9993 236.6234 C 148.9993 236.2706 148.9858 235.9206 148.9619 235.5736 L 149 235.5736 L 149 211.5 ZM 134.1652 242.5742 C 130.8872 242.5742 128.2313 239.9095 128.2313 236.6234 C 128.2313 233.3376 130.8872 230.6729 134.1652 230.6729 C 137.4422 230.6729 140.0985 233.3376 140.0985 236.6234 C 140.0985 239.9095 137.4422 242.5742 134.1652 242.5742 Z" fill="#ffffff"/>
				</g>
				<g>
					<path d="M 89.8367 235.7401 L 89.8367 221.7475 L 80.9359 221.7475 L 80.9359 235.7401 L 80.9359 236.6234 C 80.9359 239.9095 78.2786 242.5742 75.002 242.5742 C 71.7257 242.5742 69.0694 239.9095 69.0694 236.6234 L 69.0694 235.7401 L 69.0694 221.7475 L 60.1683 227.348 L 60.1683 235.7401 L 60.1683 236.6234 C 60.1683 244.8393 66.8102 251.5 75.002 251.5 C 83.1952 251.5 89.8367 244.8393 89.8367 236.6234 L 89.8367 235.7401 L 89.8367 235.7401 Z" fill="#ffffff"/>
				</g>
				<g>
					<path d="M 89.7503 236.6234 C 89.7503 228.4078 96.3925 221.7475 104.5854 221.7475 C 112.7786 221.7475 119.4205 228.4078 119.4205 236.6234 L 119.4201 237.507 L 119.4201 251.5 L 110.5193 251.5 L 110.5193 237.507 L 110.5193 236.6234 C 110.5193 233.3373 107.8627 230.6729 104.5854 230.6729 C 101.3084 230.6729 98.6514 233.3373 98.6514 236.6234 L 98.6514 237.507 L 98.6514 245.8992 L 89.7503 251.5 L 89.7503 237.507 L 89.7503 236.6234 Z" fill="#ffffff"/>
				</g>
			</g>
			<g>
				<path d="M 32 271.7754 C 29.1772 271.7754 26.4482 272.1699 23.8555 272.8926 L 23.8555 286.498 C 26.3496 285.4082 29.1035 284.8027 32 284.8027 C 43.2461 284.8027 52.3633 293.9189 52.3633 305.165 C 52.3633 316.4121 43.2461 325.5283 32 325.5283 C 20.7549 325.5283 11.6367 316.4121 11.6367 305.165 C 11.6367 304.6816 11.6553 304.2031 11.6875 303.7285 L 11.6377 303.7285 L 11.6377 279.6426 C 5.542 285.1826 1.7148 293.1748 1.7148 302.0605 C 1.7148 318.7871 15.2744 332.3457 32 332.3457 C 48.7256 332.3457 62.2852 318.7871 62.2852 302.0605 C 62.2852 285.335 48.7256 271.7754 32 271.7754 Z" fill="#cbdf00"/>
				<path d="M 40.1445 305.165 C 40.1445 300.668 36.5 297.0195 32 297.0195 C 27.502 297.0195 23.8545 300.668 23.8545 305.165 C 23.8545 309.6631 27.502 313.3105 32 313.3105 C 36.5 313.3105 40.1445 309.6631 40.1445 305.165 Z" fill="#cbdf00"/>
			</g>
			<g>
				<path d="M 32 352.7754 C 29.1772 352.7754 26.4482 353.1699 23.8555 353.8926 L 23.8555 367.498 C 26.3496 366.4082 29.1035 365.8027 32 365.8027 C 43.2461 365.8027 52.3633 374.9189 52.3633 386.165 C 52.3633 397.4121 43.2461 406.5283 32 406.5283 C 20.7549 406.5283 11.6367 397.4121 11.6367 386.165 C 11.6367 385.6816 11.6553 385.2031 11.6875 384.7285 L 11.6377 384.7285 L 11.6377 360.6426 C 5.542 366.1826 1.7148 374.1748 1.7148 383.0605 C 1.7148 399.7871 15.2744 413.3457 32 413.3457 C 48.7256 413.3457 62.2852 399.7871 62.2852 383.0605 C 62.2852 366.335 48.7256 352.7754 32 352.7754 Z" fill="#ffffff"/>
				<path d="M 40.1445 386.165 C 40.1445 381.668 36.5 378.0195 32 378.0195 C 27.502 378.0195 23.8545 381.668 23.8545 386.165 C 23.8545 390.6631 27.502 394.3105 32 394.3105 C 36.5 394.3105 40.1445 390.6631 40.1445 386.165 Z" fill="#ffffff"/>
			</g>
			<g>
				<g>
					<path d="M 82.8745 109.8369 L 82.8745 90.6836 L 70.6572 90.6836 L 70.6572 109.8369 L 70.6572 111.0459 C 70.6572 115.5439 67.0107 119.1914 62.5122 119.1914 C 58.0137 119.1914 54.3672 115.5439 54.3672 111.0459 L 54.3672 109.8369 L 54.3672 90.6836 L 42.1494 98.3496 L 42.1494 109.8369 L 42.1494 111.0459 C 42.1494 122.292 51.2661 131.4092 62.5122 131.4092 C 73.7578 131.4092 82.8745 122.292 82.8745 111.0459 L 82.8745 109.8369 Z" fill="#ffffff"/>
				</g>
				<g>
					<path d="M 21.9063 90.6836 C 19.0098 90.6836 16.2563 91.2891 13.7612 92.3794 L 13.7612 76.6567 L 1.5439 84.3232 L 1.5439 109.6089 L 1.5942 109.6089 C 1.5615 110.084 1.5435 110.563 1.5435 111.0459 C 1.5435 122.2925 10.6611 131.4092 21.9063 131.4092 C 33.1528 131.4092 42.269 122.2925 42.269 111.0459 C 42.269 99.7998 33.1528 90.6836 21.9063 90.6836 ZM 21.9063 119.1914 C 17.4087 119.1914 13.7607 115.5439 13.7607 111.0459 C 13.7607 106.5483 17.4087 102.9009 21.9063 102.9009 C 26.4058 102.9009 30.0508 106.5483 30.0508 111.0459 C 30.0508 115.5439 26.4058 119.1914 21.9063 119.1914 Z" fill="#ffffff"/>
				</g>
				<g>
					<path d="M 204.6895 76.6567 L 192.4717 84.3232 L 192.4717 92.3794 C 189.9771 91.2891 187.2231 90.6836 184.3271 90.6836 C 173.0815 90.6836 163.9644 99.7998 163.9644 111.0459 C 163.9644 122.2925 173.0815 131.4092 184.3271 131.4092 C 195.5723 131.4092 204.6885 122.2925 204.6885 111.0459 C 204.6885 110.563 204.6699 110.084 204.6372 109.6089 L 204.6895 109.6089 L 204.6895 76.6567 ZM 184.3271 119.1914 C 179.8276 119.1914 176.1821 115.5439 176.1821 111.0459 C 176.1821 106.5483 179.8276 102.9009 184.3271 102.9009 C 188.8252 102.9009 192.4712 106.5483 192.4712 111.0459 C 192.4712 115.5439 188.8252 119.1914 184.3271 119.1914 Z" fill="#ffffff"/>
				</g>
				<g>
					<path d="M 123.4814 109.8369 L 123.4814 90.6836 L 111.2642 90.6836 L 111.2642 109.8369 L 111.2642 111.0459 C 111.2642 115.5439 107.6167 119.1914 103.1191 119.1914 C 98.6221 119.1914 94.9761 115.5439 94.9761 111.0459 L 94.9761 109.8369 L 94.9761 90.6836 L 82.7583 98.3496 L 82.7583 109.8369 L 82.7583 111.0459 C 82.7583 122.292 91.875 131.4092 103.1191 131.4092 C 114.3652 131.4092 123.4814 122.292 123.4814 111.0459 L 123.4814 109.8369 L 123.4814 109.8369 Z" fill="#ffffff"/>
				</g>
				<g>
					<path d="M 123.3628 111.0459 C 123.3628 99.8003 132.48 90.6836 143.7256 90.6836 C 154.9717 90.6836 164.0884 99.8003 164.0884 111.0459 L 164.0879 112.2554 L 164.0879 131.4092 L 151.8706 131.4092 L 151.8706 112.2554 L 151.8706 111.0459 C 151.8706 106.5479 148.2241 102.9009 143.7256 102.9009 C 139.2275 102.9009 135.5806 106.5479 135.5806 111.0459 L 135.5806 112.2554 L 135.5806 123.7427 L 123.3628 131.4092 L 123.3628 112.2554 L 123.3628 111.0459 Z" fill="#ffffff"/>
				</g>
			</g>
		</g>
	</g>
</svg>