<?xml version="1.0" encoding="UTF-8"?>
<svg width="91px" height="19px" viewBox="0 0 91 19" version="1.1" xmlns="http://www.w3.org/2000/svg" xmlns:xlink="http://www.w3.org/1999/xlink">
    <!-- Generator: Sketch 48.2 (47327) - http://www.bohemiancoding.com/sketch -->
    <title>Group 19</title>
    <desc>Created with Sketch.</desc>
    <defs></defs>
    <g id="Letter" stroke="none" stroke-width="1" fill="none" fill-rule="evenodd" transform="translate(-102.000000, -133.000000)">
        <g id="Group-19" transform="translate(102.000000, 133.000000)" fill="#00A84F">
            <path d="M18,19 L15.1027049,19 C13.4414612,19 12.8767342,17.5478984 12.8767342,17.5478984 L11.248428,13.4551702 L4.72142928,13.4551702 L2.53558239,19 L0,19 C0,19 5.82992315,5.21869906 7.76185248,0.628575995 C7.85707156,0.39779447 8.07445853,0 8.53917557,0 C8.96796087,0.00728783762 10.1680806,0 10.1680806,0 L18,19 Z M8.03193932,5.30493847 C8.03193932,5.30493847 5.81854476,10.7094774 5.38257311,11.8372703 L10.5944705,11.8372703 C10.1584989,10.7094774 8.03193932,5.30493847 8.03193932,5.30493847 L8.03193932,5.30493847 Z" id="Fill-4"></path>
            <path d="M43.6771483,10.2166544 L43.6844411,19 L39.000081,19 L39.000081,0.769818682 C39.000081,0.769818682 38.9739487,0 39.8606225,0 L45.5446936,0 C46.267281,0 46.8847317,0.026126443 47.4012997,0.0546832529 C47.9160445,0.09660708 48.3566466,0.143999233 48.7279678,0.21447987 C49.1011123,0.295289565 49.4219921,0.39007387 49.7015466,0.509769435 C49.9774547,0.629465 50.2369541,0.767995907 50.4861222,0.936906399 C51.0586011,1.34338525 51.5064959,1.83857248 51.842569,2.43158198 C52.1737802,3.02155352 52.3445515,3.73486617 52.3445515,4.56179847 C52.3445515,5.8991078 51.960468,6.98487416 51.2032401,7.8312494 C50.4356809,8.66972594 49.339949,9.26455822 47.9160445,9.61270826 C48.8306737,11.1705734 54,19 54,19 L50.517724,19 C48.6799574,19 47.9853254,17.4846663 47.9853254,17.4846663 L43.9311782,10.2166544 L43.6771483,10.2166544 Z M46.5644596,2.13082409 C45.3909386,1.46854913 43.6771483,1.56819417 43.6771483,1.56819417 L43.6959879,9.08106552 C43.6959879,9.08106552 45.3441436,9.22384957 46.6489336,8.39934764 C47.4967128,7.85737584 48.2059303,6.90527965 48.2059303,5.23440248 C48.2059303,3.55258866 47.4547797,2.63391001 46.5644596,2.13082409 L46.5644596,2.13082409 Z" id="Fill-6"></path>
            <path d="M19.0000011,0.798043728 C19.0000011,0.798043728 18.9939595,0 19.8742252,0 C22.1772952,0 27.8884497,0 30,0.00607339215 L30,1.45639944 C30,2.50770362 29.011589,2.38259174 29.011589,2.38259174 C28.1023235,2.38259174 23.6629325,2.3850211 23.6629325,2.3850211 L23.6629325,7.9652538 L29.8906465,7.9652538 L29.8906465,9.49210459 C29.8906465,9.49210459 29.9498545,10.3247667 28.9801726,10.3247667 L23.6629325,10.3247667 L23.6671616,19 L19.0000011,19 L19.0000011,0.798043728 Z" id="Fill-8"></path>
            <path d="M32.0041357,0.918904232 C32.0041357,0.918904232 31.8860164,0 32.9122986,0 L37,0 L37,19 L32.0041357,19 L32.0041357,0.918904232 Z" id="Fill-10"></path>
            <path d="M57.6413027,19 L55,19 L57.8067574,0.598836466 C57.8067574,0.598836466 57.8987431,0 58.618501,0 L60.1744923,0 L66.6570924,13.2600371 L73.2071885,0 L74.9101179,0 C75.5390848,0 75.6734795,0.598836466 75.6734795,0.598836466 L78,19 L73.3947437,19 C73.3947437,19 72.4987794,8.50578571 72.275983,6.34487278 L72.2198359,6.34487278 L66.0119981,19 L64.9458007,19 C64.9458007,19 59.8877837,8.72503516 58.8197943,6.6193901 L58.7666338,6.6193901 L57.6413027,19 Z" id="Fill-12"></path>
            <path d="M80,0.686834788 C80,0.686834788 80.0531956,0 80.8698685,0 L90.9999975,0 L90.9999975,1.56071212 C90.9999975,2.29612938 90.3114776,2.37993416 90.3114776,2.37993416 L84.5808639,2.37993416 L84.5808639,7.96509732 L90.8881659,7.96509732 L90.8881659,9.39585131 C90.8881659,10.3341004 90.1319425,10.3280276 90.1319425,10.3280276 L84.5808639,10.3249912 L84.5808639,16.6631828 L90.9999975,16.6698629 L90.9999975,18.1989964 C90.9999975,18.1989964 91.0078559,19 90.1416144,19 L80.006045,19 L80,0.686834788 Z" id="Fill-14"></path>
        </g>
    </g>
</svg>