<?xml version="1.0" encoding="utf-8"?>
<!-- Generator: Adobe Illustrator 18.0.0, SVG Export Plug-In . SVG Version: 6.00 Build 0)  -->
<!DOCTYPE svg PUBLIC "-//W3C//DTD SVG 1.1//EN" "http://www.w3.org/Graphics/SVG/1.1/DTD/svg11.dtd">
<svg version="1.1" id="logo_x5F_editable-Page_x25_201"
	 xmlns="http://www.w3.org/2000/svg" xmlns:xlink="http://www.w3.org/1999/xlink" x="0px" y="0px" viewBox="0 179 206 57"
	 enable-background="new 0 179 206 57" xml:space="preserve">
<path fill="none" d="z"/>
<g>
	<g>
		<path fill="#CADA2B" d="M82.7,213.3v-19.2H70.4v19.2v1.2c0,4.5-3.7,8.2-8.2,8.2s-8.2-3.7-8.2-8.2v-1.2v-19.2l-12.3,7.7v11.5v1.2
			c0,11.3,9.2,20.5,20.4,20.5c11.3,0,20.4-9.2,20.4-20.5V213.3z"/>
	</g>
	<g>
		<path fill="#CADA2B" d="M21.4,194.1c-2.9,0-5.7,0.6-8.2,1.7V180L1,187.7v25.4h0.1c0,0.5-0.1,1-0.1,1.4c0,11.3,9.2,20.5,20.4,20.5
			c11.3,0,20.4-9.2,20.4-20.5C41.9,203.2,32.7,194.1,21.4,194.1z M21.4,222.7c-4.5,0-8.2-3.7-8.2-8.2c0-4.5,3.7-8.2,8.2-8.2
			c4.5,0,8.2,3.7,8.2,8.2C29.6,219.1,26,222.7,21.4,222.7z"/>
	</g>
	<g>
		<path fill="#CADA2B" d="M205,180l-12.3,7.7v8.1c-2.5-1.1-5.3-1.7-8.2-1.7c-11.3,0-20.4,9.2-20.4,20.5c0,11.3,9.2,20.5,20.4,20.5
			c11.3,0,20.4-9.2,20.4-20.5c0-0.5,0-1-0.1-1.4h0.1V180z M184.6,222.7c-4.5,0-8.2-3.7-8.2-8.2c0-4.5,3.7-8.2,8.2-8.2
			c4.5,0,8.2,3.7,8.2,8.2C192.7,219.1,189.1,222.7,184.6,222.7z"/>
	</g>
	<g>
		<path fill="#CADA2B" d="M123.5,213.3v-19.2h-12.3v19.2v1.2c0,4.5-3.7,8.2-8.2,8.2c-4.5,0-8.2-3.7-8.2-8.2v-1.2v-19.2l-12.3,7.7
			v11.5v1.2c0,11.3,9.2,20.5,20.4,20.5c11.3,0,20.4-9.2,20.4-20.5V213.3L123.5,213.3z"/>
	</g>
	<g>
		<path fill="#CADA2B" d="M123.3,214.5c0-11.3,9.2-20.5,20.4-20.5c11.3,0,20.4,9.2,20.4,20.5l0,1.2V235H152v-19.2v-1.2
			c0-4.5-3.7-8.2-8.2-8.2c-4.5,0-8.2,3.7-8.2,8.2v1.2v11.5l-12.3,7.7v-19.2V214.5z"/>
	</g>
</g>
<path fill="none" d="z"/>
</svg>
