<?xml version="1.0" encoding="UTF-8" standalone="no"?>
<svg width="192px" height="34px" viewBox="0 0 192 34" version="1.1" xmlns="http://www.w3.org/2000/svg" xmlns:xlink="http://www.w3.org/1999/xlink">
    <!-- Generator: Sketch 43.2 (39069) - http://www.bohemiancoding.com/sketch -->
    <title>Page 1</title>
    <desc>Created with Sketch.</desc>
    <defs>
        <polygon id="path-1" points="0 33.6817953 0 0.213225309 30.5968842 0.213225309 30.5968842 33.6817953 3.49295702e-16 33.6817953"/>
        <polygon id="path-3" points="0.245052632 0.148899177 63.2067368 0.148899177 63.2067368 33.744856 0.245052632 33.744856 0.245052632 0.148899177"/>
        <polygon id="path-5" points="0.393768421 0.148899177 28.6788211 0.148899177 28.6788211 14.8307377 0.393768421 14.8307377 0.393768421 0.148899177"/>
    </defs>
    <g id="PADRON-—-COFOCE" stroke="none" stroke-width="1" fill="none" fill-rule="evenodd">
        <g id="01-home-padron" transform="translate(-130.000000, -21.000000)">
            <g id="Page-1" transform="translate(130.000000, 21.000000)">
                <path d="M69.9198316,8.88540021 L69.9198316,33.1580751 L79.0613053,33.1580751 L79.0613053,21.538034 L91.4149895,21.538034 L91.4149895,14.6422726 L79.0613053,14.6422726 L79.0613053,10.5684249 C79.0613053,9.71889815 79.0613053,8.79302366 80.6444632,8.79302366 L94.0785684,8.79302366 L94.0785684,1.28310597 L77.5712,1.28310597 C73.1050947,1.28310597 69.9198316,4.30200514 69.9198316,8.88540021" id="Fill-1" fill="#FFFFFF"/>
                <g id="Group-5" transform="translate(0.000000, 0.273080)">
                    <mask id="mask-2" fill="white">
                        <use xlink:href="#path-1"/>
                    </mask>
                    <g id="Clip-4"/>
                    <path d="M17.3408842,25.8281019 C12.3695158,25.8281019 8.97835789,21.8664558 8.97835789,16.9485648 L8.97835789,16.8296142 C8.97835789,12.0943673 12.4389895,8.2040072 16.9842526,8.07324588 C20.4634105,7.98086934 22.6187789,9.32011831 24.6554105,11.4810545 L30.1038316,5.61493313 C27.1080421,2.25352366 23.0874105,0.213225309 17.0436211,0.213225309 C7.22383158,0.213225309 -0.000168421053,7.77586934 -0.000168421053,16.9485648 L-0.000168421053,17.0708899 C-0.000168421053,26.2482253 7.28656842,33.6817953 16.9248842,33.6817953 C23.3286737,33.6817953 27.3787789,31.2677726 30.5968842,27.6368261 L25.2659368,22.2473508 C23.0318316,24.65125 20.3939368,25.8281019 17.3408842,25.8281019" id="Fill-3" fill="#FFFFFF" mask="url(#mask-2)"/>
                </g>
                <path d="M57.0546947,17.3407644 C57.0546947,22.0772767 53.9405895,26.0979763 48.7334316,26.0979763 C43.7010105,26.0979763 40.2946947,21.9612788 40.2946947,17.2150648 L40.2946947,17.0978014 C40.2946947,12.3608673 43.4058526,8.34312037 48.6130105,8.34312037 C53.6403789,8.34312037 57.0546947,12.4781307 57.0546947,17.2150648 L57.0546947,17.3407644 Z M48.7334316,0.48647428 C38.7368,0.48647428 31.3149053,7.98289403 31.3149053,17.2150648 L31.3149053,17.3407644 C31.3149053,26.5775751 38.6774316,33.9550442 48.6130105,33.9550442 C58.6109053,33.9550442 66.0311158,26.4548282 66.0311158,17.2150648 L66.0311158,17.0978014 C66.0311158,7.8635216 58.6706947,0.48647428 48.7334316,0.48647428 L48.7334316,0.48647428 Z" id="Fill-6" fill="#FFFFFF"/>
                <g id="Group-10" transform="translate(95.578947, 0.273080)">
                    <mask id="mask-4" fill="white">
                        <use xlink:href="#path-3"/>
                    </mask>
                    <g id="Clip-9"/>
                    <path d="M17.6665263,25.669501 C12.8736842,25.669501 9.09768421,21.5889043 9.09768421,16.9485648 C9.09768421,12.3061163 12.8770526,8.22551955 17.6665263,8.22551955 C21.9018947,8.22551955 24.5456842,11.0461677 27.6269474,15.6029887 C27.9221053,16.0425154 28.2181053,16.475715 28.5263158,16.9485648 C25.0341053,22.3000772 22.6492632,25.669501 17.6665263,25.669501 M49.8829474,25.7154784 C37.4682105,25.7154784 35.7814737,0.148688272 17.6665263,0.148688272 C8.25936842,0.148688272 0.245052632,7.68644547 0.245052632,16.9485648 C0.245052632,26.2085751 8.25936842,33.7450669 17.6665263,33.7450669 C25.2092632,33.7450669 29.8037895,29.3831224 33.4412632,24.3467027 C37.16,29.3236471 42.0602105,33.7450669 49.8829474,33.7450669 C57.3393684,33.7450669 61.9343158,28.8836986 63.2067368,27.4288735 L57.3692632,21.5792027 C56.3557895,22.8387294 53.6223158,25.7154784 49.8829474,25.7154784" id="Fill-8" fill="#FFFFFF" mask="url(#mask-4)"/>
                </g>
                <path d="M169.178442,14.6424414 C169.516547,10.7390051 172.151916,7.8040463 175.988126,7.8040463 C179.876126,7.8040463 182.308968,10.5685936 182.856758,14.6424414 L169.178442,14.6424414 Z M191.679916,15.044427 C190.8976,7.7213714 185.451284,0.486052469 175.988126,0.486052469 C166.496337,0.486052469 159.863495,8.0486965 159.863495,17.2150648 L159.863495,17.3407644 C159.863495,27.1757027 167.101811,33.9550442 176.898863,33.9550442 C182.802863,33.9550442 187.180968,31.6734702 190.221389,27.9497253 L184.924547,23.3300545 C182.375074,25.6749002 180.298863,26.3628735 177.199495,26.3628735 C173.056758,26.3628735 169.927495,24.4115772 169.293389,20.3373076 L186.511074,20.3373076 C190.359916,20.3373076 191.977179,17.8266903 191.679916,15.044427 L191.679916,15.044427 Z" id="Fill-11" fill="#FFFFFF"/>
                <g id="Group-15" transform="translate(130.105263, 0.273080)">
                    <mask id="mask-6" fill="white">
                        <use xlink:href="#path-5"/>
                    </mask>
                    <g id="Clip-14"/>
                    <path d="M5.25945263,14.8307377 C5.48513684,14.5181759 5.71292632,14.2005525 5.93903158,13.9065504 C8.63629474,10.4143796 11.3061895,8.22560391 15.3562947,8.22560391 C18.8619789,8.22560391 21.6560842,10.9273014 22.8396632,12.3091533 L28.6788211,6.46116975 C27.7512421,5.43110802 23.2093474,0.148772634 15.3562947,0.148772634 C8.67376842,0.148772634 3.93524211,3.54941049 0.393768421,7.72786728 C1.86576842,9.65048045 3.17987368,11.6511286 4.40597895,13.5294516 C4.69313684,13.9694002 4.97692632,14.4025998 5.25945263,14.8307377" id="Fill-13" fill="#FFFFFF" mask="url(#mask-6)"/>
                </g>
            </g>
        </g>
    </g>
</svg>