<?xml version="1.0" encoding="UTF-8"?>
<!-- Generator: Adobe Illustrator 19.0.0, SVG Export Plug-In . SVG Version: 6.00 Build 0)  -->
<svg version="1.1" id="Layer_1" xmlns="http://www.w3.org/2000/svg" xmlns:xlink="http://www.w3.org/1999/xlink" x="0px" y="0px" viewBox="152 470 282 62" style="enable-background:new 152 470 282 62;" xml:space="preserve">
<style type="text/css">
	.st0{fill:url(#SVGID_1_);}
	.st1{fill:url(#SVGID_2_);}
	.st2{fill:url(#SVGID_3_);}
	.st3{fill:#FFFFFF;}
</style>
<g>
	
		<radialGradient id="SVGID_1_" cx="215.0865" cy="519.6256" r="85.5162" gradientTransform="matrix(1.0165 0 0 -1 -4.8368 1004)" gradientUnits="userSpaceOnUse">
		<stop offset="0" style="stop-color:#008FD5"/>
		<stop offset="0.7975" style="stop-color:#003C7F"/>
	</radialGradient>
	<path class="st0" d="M227.2,471c-0.1,0-0.2,0-0.3,0.1c-1.4,1.7-3.8,2.7-8.4,2.7l-48.7,0c-7.2,0-10.1,2-11.9,6.1   c-0.8,1.9-1.9,5.7-2.2,7.6c0,0.2,0,0.3,0.1,0.3c0.1,0,0.2,0,0.3-0.2c1.5-1.7,3.2-2.7,8.3-2.7h51.4c7.2,0,9-2.5,10-6.2   c0.5-1.9,1.1-5.6,1.4-7.5C227.3,471.1,227.3,471.1,227.2,471z"/>
	
		<radialGradient id="SVGID_2_" cx="215.0865" cy="519.6248" r="85.5164" gradientTransform="matrix(1.0165 0 0 -1 -4.8368 1004)" gradientUnits="userSpaceOnUse">
		<stop offset="0" style="stop-color:#008FD5"/>
		<stop offset="0.7975" style="stop-color:#003C7F"/>
	</radialGradient>
	<path class="st1" d="M224.6,487.8c-0.1,0-0.2,0-0.3,0.2c-1.4,1.7-3.4,2.7-8.4,2.7h-23.6l-6.1,39.6h11.5l4.4-28.3c7.4,0,9.1,0,9.1,0   c7.2,0,10.4-2.6,11.6-6.2c0.7-2,1.6-5.7,1.9-7.7C224.7,487.9,224.7,487.9,224.6,487.8z"/>
	
		<radialGradient id="SVGID_3_" cx="215.0865" cy="519.6164" r="85.5046" gradientTransform="matrix(1.0165 0 0 -1 -4.8368 1004)" gradientUnits="userSpaceOnUse">
		<stop offset="0" style="stop-color:#008FD5"/>
		<stop offset="0.7975" style="stop-color:#003C7F"/>
	</radialGradient>
	<path class="st2" d="M164.5,490.7c-7.2,0-9,2.7-10,6.3c-0.5,1.9-1.2,5.6-1.5,7.5c0,0.2,0,0.3,0.1,0.4c0.1,0,0.2,0,0.3-0.2   c1.4-1.7,3.3-2.8,8.1-2.8l11.8,0l-4.4,28.3h11.5l6.1-39.6L164.5,490.7L164.5,490.7z"/>
</g>
<path class="st3" d="M276.5,511.4"/>
<path class="st3" d="M278.7,498.9"/>
<g>
	<g>
		<path class="st3" d="M265.9,507.6l-3.7,22.8h-7.6l4.2-27c0,0,6.6-2.2,15.9-1.8l-1,5.5l-0.3,0.2    C269.2,506.7,265.9,507.6,265.9,507.6z"/>
		<path class="st3" d="M423.7,507.6l-3.7,22.8h-7.6l4.2-27c0,0,7-2.2,16.3-1.8l-1,5.5l-0.3,0.2C427.5,506.8,423.7,507.6,423.7,507.6    z"/>
		<path class="st3" d="M244.4,530.8c-4.8,0-8.6-1.7-7.7-7.2l2.6-16.8h-3.6l0.8-5.4h3.7l1.3-8.1h7.6l-1.3,8.1h6.6l-0.8,5.4h-6.6    l-2.4,15.6c-0.3,2.1,0.7,2.8,2.9,2.8c1.1,0,2.4-0.2,3.3-0.4l0.3,0.2l-0.8,5.1C248.9,530.5,246.7,530.8,244.4,530.8z"/>
		<path class="st3" d="M290.6,527.1c-1.9,2.1-4.8,3.9-9.2,3.9c-5.9,0-9.8-3-8.9-8.5c0.9-6,6.1-8,13.7-9l6.2-0.8l0-0.1    c0.7-4.6-1.1-6-5.7-6c-3.9,0-6.5,0.8-9.3,2.1l-0.3-0.1l1-5.7c2.7-1.4,6-2.1,10.6-2.1c8.4,0,12.7,3.1,11.4,11.5l-2.8,18h-6.6    L290.6,527.1z M290.8,523.1l0.9-5.8l-4.5,0.6c-4.7,0.6-6.7,1.7-7.1,4.2c-0.4,2.3,0.9,3.8,4.1,3.8    C287.1,525.9,289.2,524.8,290.8,523.1z"/>
		<path class="st3" d="M313.4,506.9l-3.6,23.4h-7.6l4.8-30.9c1.2-7.7,7.3-9.7,12.6-9.7c2.3,0,3.6,0.2,4.2,0.4L323,495    c-0.4-0.1-1.2-0.2-2.9-0.2c-2.3,0-4.9,1-5.5,4.9l-0.3,1.8h6.6l-0.8,5.4H313.4z"/>
		<path class="st3" d="M325.5,501.5h7.6l-4.5,28.8H321L325.5,501.5z M327.1,490.7h7.7l-1,6.3h-7.7L327.1,490.7z"/>
		<path class="st3" d="M344.8,508.6l-3.4,21.7h-7.6l4.5-28.8h6.7l0,3.3c2.4-2,5.4-3.9,9.7-3.9c3.9,0,6.5,1.3,7.5,4.5    c2.6-2.4,5.8-4.5,10.5-4.5c5.6,0,8.9,3.1,7.9,9.7l-3.1,19.7h-7.6l2.9-18.5c0.6-4-1.2-5.2-3.8-5.2c-2.5,0-4.2,0.6-6.2,2l-3.4,21.7    h-7.6l2.9-18.5c0.6-4-1.2-5.2-3.8-5.2C348.6,506.6,346.8,507.2,344.8,508.6z"/>
	</g>
	<path class="st3" d="M400.6,527.1c-1.9,2.1-4.8,3.9-9.2,3.9c-5.9,0-9.8-3-8.9-8.5c0.9-6,6.1-8,13.7-9l6.2-0.8l0-0.1   c0.7-4.6-1.1-6-5.7-6c-3.9,0-6.5,0.8-9.3,2.1l-0.3-0.1l1-5.7c2.7-1.4,6-2.1,10.6-2.1c8.4,0,12.7,3.1,11.4,11.5l-2.8,18h-6.6   L400.6,527.1z M400.8,523.1l0.9-5.8l-4.5,0.6c-4.7,0.6-6.7,1.7-7.1,4.2c-0.4,2.3,0.9,3.8,4.1,3.8   C397.1,525.9,399.2,524.8,400.8,523.1z"/>
</g>
</svg>