<svg id="Capa_1" data-name="Capa 1" xmlns="http://www.w3.org/2000/svg" xmlns:xlink="http://www.w3.org/1999/xlink" viewBox="0 0 36.85 9.33"><defs><style>.cls-1{fill:none;}.cls-2,.cls-25{fill:#cea842;}.cls-2{fill-rule:evenodd;}.cls-3{clip-path:url(#clip-path);}.cls-4{fill:url(#Degradado_sin_nombre);}.cls-5{clip-path:url(#clip-path-2);}.cls-6{fill:url(#Degradado_sin_nombre_2);}.cls-7{clip-path:url(#clip-path-3);}.cls-8{fill:url(#Degradado_sin_nombre_3);}.cls-9{clip-path:url(#clip-path-4);}.cls-10{fill:url(#Degradado_sin_nombre_4);}.cls-11{clip-path:url(#clip-path-5);}.cls-12{fill:url(#Degradado_sin_nombre_5);}.cls-13{clip-path:url(#clip-path-6);}.cls-14{fill:url(#Degradado_sin_nombre_6);}.cls-15{clip-path:url(#clip-path-7);}.cls-16{fill:url(#Degradado_sin_nombre_7);}.cls-17{clip-path:url(#clip-path-8);}.cls-18{fill:url(#Degradado_sin_nombre_8);}.cls-19{clip-path:url(#clip-path-9);}.cls-20{fill:url(#Degradado_sin_nombre_9);}.cls-21{clip-path:url(#clip-path-10);}.cls-22{fill:url(#Degradado_sin_nombre_10);}.cls-23{clip-path:url(#clip-path-11);}.cls-24{fill:url(#Degradado_sin_nombre_11);}.cls-26{clip-path:url(#clip-path-12);}.cls-27{fill:url(#Degradado_sin_nombre_12);}.cls-28{clip-path:url(#clip-path-13);}.cls-29{fill:url(#Degradado_sin_nombre_13);}</style><clipPath id="clip-path"><path class="cls-1" d="M14.645,0.262h0c0-.027-0.027-0.024-0.047-0.012a0.62,0.62,0,0,0-.161.189c-0.082.129-.169,0.286-0.239,0.424A2.534,2.534,0,0,0,14.613.372a0.175,0.175,0,0,0,.031-0.11M13.275,2.687h0l-0.051.129a0.428,0.428,0,0,0-.051.306,0.116,0.116,0,0,0,.071-0.086A1.028,1.028,0,0,0,13.275,2.687Zm0.471-1.346h0c-0.2.192-.408,0.381-0.62,0.565a2.563,2.563,0,0,1,.145.534A8.248,8.248,0,0,1,13.746,1.341Zm0.93-1.052a1.976,1.976,0,0,1-.5.628c-0.283.577-.6,1.142-0.875,1.723a0.655,0.655,0,0,1-.106.506C13.1,3.185,13.11,3.048,13.118,3a2.754,2.754,0,0,1,.134-0.5,2.667,2.667,0,0,0-.145-0.573,13.962,13.962,0,0,1-1.256,1,1.259,1.259,0,0,1-.455.208,0.394,0.394,0,0,1-.42-0.126,0.346,0.346,0,0,1-.051-0.224,0.358,0.358,0,0,1,.232-0.322,0.086,0.086,0,0,1,.1.1,0.136,0.136,0,0,1-.118.13,0.071,0.071,0,0,0,.012-0.082c-0.039-.027-0.129-0.012-0.176.11a0.287,0.287,0,0,0,.1.341,0.533,0.533,0,0,0,.475-0.008,1.915,1.915,0,0,0,.384-0.228c0.4-.29.785-0.612,1.158-0.938a2.156,2.156,0,0,0-.177-0.353,0.807,0.807,0,0,0-.809-0.447,0.925,0.925,0,0,0-.687.624,0.415,0.415,0,0,0,.412.6,0.447,0.447,0,0,0,.4-0.4A0.193,0.193,0,0,0,12.1,1.706a0.238,0.238,0,0,0-.173.051c-0.016.008-.023-0.008-0.012-0.02a0.247,0.247,0,0,1,.192-0.059,0.2,0.2,0,0,1,.141.153,0.407,0.407,0,0,1-.169.416,0.566,0.566,0,0,1-.436.11,0.509,0.509,0,0,1-.318-0.73,0.92,0.92,0,0,1,.294-0.376,0.858,0.858,0,0,1,.934-0.118,1.413,1.413,0,0,1,.561.746c0.228-.2.455-0.408,0.679-0.62a5.91,5.91,0,0,1,.42-0.647A1.618,1.618,0,0,1,14.547.231C14.605,0.188,14.7.188,14.676,0.289Z"/></clipPath><linearGradient id="Degradado_sin_nombre" x1="10.917" y1="1.686" x2="14.685" y2="1.686" gradientUnits="userSpaceOnUse"><stop offset="0" stop-color="#98781d"/><stop offset="0.22" stop-color="#98781d"/><stop offset="0.36" stop-color="#b9973c"/><stop offset="0.41" stop-color="#b9973c"/><stop offset="0.57" stop-color="#cea842"/><stop offset="0.84" stop-color="#98781d"/><stop offset="1" stop-color="#57430c"/></linearGradient><clipPath id="clip-path-2"><path class="cls-1" d="M14.57,3.005c0.169-.173.338-0.381,0.491-0.573,0.012-.016.031,0.008,0.02,0.019C15,2.558,14.908,2.668,14.822,2.77a2.273,2.273,0,0,1-.326.341,0.2,0.2,0,0,1-.173.035,0.121,0.121,0,0,1-.071-0.11A2.71,2.71,0,0,1,14.6,2.3a0.039,0.039,0,0,0-.035-0.055,0.353,0.353,0,0,0-.251.141,2.11,2.11,0,0,0-.263.326c-0.075.133-.153,0.251-0.236,0.381a0.09,0.09,0,0,1-.122.047,0.087,0.087,0,0,1-.047-0.074A0.144,0.144,0,0,1,13.672,3c0.1-.157.2-0.314,0.3-0.471,0.008-.012.177-0.263,0.1-0.263a0.186,0.186,0,0,0-.106.063,1.23,1.23,0,0,0-.11.122c-0.02.024-.047,0.016-0.02-0.019s0.063-.079.129-0.149,0.181-.133.236-0.051a0.388,0.388,0,0,1-.055.306A2.29,2.29,0,0,1,14.3,2.357a0.881,0.881,0,0,1,.177-0.133c0.141-.079.283-0.012,0.236,0.165a7.169,7.169,0,0,0-.326.667c0.035,0.055.142-.008,0.185-0.051"/></clipPath><linearGradient id="Degradado_sin_nombre_2" x1="13.641" y1="2.658" x2="15.089" y2="2.658" xlink:href="#Degradado_sin_nombre"/><clipPath id="clip-path-3"><path class="cls-1" d="M15.363,1.8h0a0.09,0.09,0,0,1,.114-0.047,0.092,0.092,0,0,1,.031.126A0.084,0.084,0,1,1,15.363,1.8M15.371,2.77a2.252,2.252,0,0,1-.342.353,0.159,0.159,0,0,1-.176.008,0.152,0.152,0,0,1-.024-0.157c0.067-.169.161-0.349,0.247-0.518-0.012.012-.035,0-0.016-0.023,0.035-.047.071-0.1,0.11-0.161A0.156,0.156,0,0,1,15.23,2.2a0.076,0.076,0,0,1,.11.067,0.336,0.336,0,0,1-.047.106c-0.106.192-.236,0.4-0.334,0.6-0.027.055-.031,0.118,0.059,0.1a0.249,0.249,0,0,0,.1-0.063c0.169-.173.338-0.381,0.491-0.573,0.012-.016.031,0.008,0.02,0.019C15.547,2.558,15.457,2.668,15.371,2.77Z"/></clipPath><linearGradient id="Degradado_sin_nombre_3" x1="14.819" y1="2.454" x2="15.629" y2="2.454" xlink:href="#Degradado_sin_nombre"/><clipPath id="clip-path-4"><path class="cls-1" d="M16.442,2.243h0a0.083,0.083,0,0,0-.086.024,0.213,0.213,0,0,0-.039.255,0.625,0.625,0,0,0,.126-0.279m0.3,0.208a0.36,0.36,0,0,1-.334.157,1.788,1.788,0,0,1-.286.337,1.294,1.294,0,0,1-.2.157,0.312,0.312,0,0,1-.255.039c-0.145-.051-0.1-0.329-0.043-0.443a4.373,4.373,0,0,1,.224-0.389c0.02-.031.043-0.1-0.043-0.047a0.753,0.753,0,0,0-.181.188c-0.016.02-.043,0.012-0.02-0.019,0.071-.09.212-0.294,0.341-0.228,0.1,0.051.047,0.208,0,.3a1.242,1.242,0,0,0-.283.6c0.082,0.1.291-.133,0.361-0.208,0.094-.11.184-0.228,0.267-0.345a0.268,0.268,0,0,1-.031-0.173A0.229,0.229,0,0,1,16.4,2.2c0.086-.035.133,0.047,0.121,0.122a0.719,0.719,0,0,1-.1.255,0.332,0.332,0,0,0,.3-0.145A0.014,0.014,0,0,1,16.744,2.452Z"/></clipPath><linearGradient id="Degradado_sin_nombre_4" x1="15.58" y1="2.667" x2="16.746" y2="2.667" xlink:href="#Degradado_sin_nombre"/><clipPath id="clip-path-5"><path class="cls-1" d="M16.748,2.695h0a1.158,1.158,0,0,0,.122-0.008,0.441,0.441,0,0,0,.4-0.439A0.092,0.092,0,0,0,17.2,2.224a0.311,0.311,0,0,0-.208.1,1.384,1.384,0,0,0-.247.369m0.864-.243a2.422,2.422,0,0,1-.64.64,0.308,0.308,0,0,1-.353.012,0.428,0.428,0,0,1-.008-0.518,0.875,0.875,0,0,1,.353-0.334A0.426,0.426,0,0,1,17.231,2.2a0.2,0.2,0,0,1,.118.063,0.172,0.172,0,0,1-.012.216,0.689,0.689,0,0,1-.377.228,0.823,0.823,0,0,1-.224.02c-0.043.11-.133,0.322,0.039,0.365a0.475,0.475,0,0,0,.341-0.141,2.78,2.78,0,0,0,.306-0.306c0.043-.051.082-0.1,0.126-0.153l0.043-.055A0.014,0.014,0,0,1,17.612,2.452Z"/></clipPath><linearGradient id="Degradado_sin_nombre_5" x1="16.525" y1="2.685" x2="17.618" y2="2.685" xlink:href="#Degradado_sin_nombre"/><clipPath id="clip-path-6"><path class="cls-1" d="M17.722,2.118h0c-0.024-.02-0.059.043-0.063,0.055a0.1,0.1,0,0,0,.024.122,0.2,0.2,0,0,0,.039-0.177m0.71,0.334a4.7,4.7,0,0,1-.565.636,0.211,0.211,0,0,1-.184.063c-0.149-.043-0.035-0.326.008-0.412a1.943,1.943,0,0,1,.216-0.345,0.67,0.67,0,0,1-.216-0.059,1.079,1.079,0,0,1-.079.118c-0.016.02-.039,0.008-0.02-0.019s0.047-.067.075-0.11A0.122,0.122,0,0,1,17.627,2.2a0.176,0.176,0,0,1,.043-0.086,0.046,0.046,0,0,1,.079,0,0.252,0.252,0,0,1-.043.192,0.4,0.4,0,0,0,.255-0.012,0.347,0.347,0,0,1,.09-0.031,0.087,0.087,0,0,1,.071.039,0.077,0.077,0,0,1-.008.086c-0.027.031-.051,0.067-0.075,0.1a4.361,4.361,0,0,0-.3.459c-0.02.032-.071,0.137-0.031,0.157a0.166,0.166,0,0,0,.129-0.039,3.494,3.494,0,0,0,.577-0.632A0.014,0.014,0,0,1,18.432,2.452Z"/></clipPath><linearGradient id="Degradado_sin_nombre_6" x1="17.581" y1="2.626" x2="18.44" y2="2.626" xlink:href="#Degradado_sin_nombre"/><clipPath id="clip-path-7"><path class="cls-1" d="M18.6,2.2h0c0-.008.141-0.165,0.079-0.18a0.078,0.078,0,0,0-.071.066A0.225,0.225,0,0,0,18.6,2.2m0.616,0.243a6.18,6.18,0,0,1-.459.538,0.629,0.629,0,0,1-.263.149c-0.063.016-.294,0.051-0.306-0.106A0.231,0.231,0,0,1,18.35,2.8a0.06,0.06,0,0,1,.074.071,0.111,0.111,0,0,1-.079.1,0.046,0.046,0,0,0,0-.059,0.109,0.109,0,0,0-.137.106,0.086,0.086,0,0,0,.078.086,0.249,0.249,0,0,0,.189-0.082,0.913,0.913,0,0,0,.082-0.734c-0.031.043-.078,0.1-0.126,0.161-0.02.024-.035,0-0.02-0.019,0.035-.043.094-0.122,0.141-0.177a0.282,0.282,0,0,1,.059-0.239c0.051-.039.122-0.016,0.1,0.055a0.532,0.532,0,0,1-.106.157,0.641,0.641,0,0,1,.055.765,0.518,0.518,0,0,1-.114.086,0.64,0.64,0,0,0,.263-0.192c0.11-.122.29-0.341,0.381-0.459A0.014,0.014,0,0,1,19.213,2.448Z"/></clipPath><linearGradient id="Degradado_sin_nombre_7" x1="18.182" y1="2.581" x2="19.213" y2="2.581" xlink:href="#Degradado_sin_nombre"/><clipPath id="clip-path-8"><path class="cls-1" d="M19.586,2.77h0a1.849,1.849,0,0,0,.173-0.322,0.146,0.146,0,0,0-.106-0.2,0.334,0.334,0,0,0-.212.106,1.141,1.141,0,0,0-.353.6,0.114,0.114,0,0,0,.071.145,0.24,0.24,0,0,0,.118-0.012,0.765,0.765,0,0,0,.31-0.31m0.722-.337a0.014,0.014,0,0,1,.02.019c-0.118.149-.345,0.428-0.5,0.589a0.24,0.24,0,0,1-.259.1,0.217,0.217,0,0,1-.012-0.279,0.759,0.759,0,0,1-.3.271,0.215,0.215,0,0,1-.212-0.012,0.278,0.278,0,0,1-.078-0.232,0.792,0.792,0,0,1,.188-0.436A0.738,0.738,0,0,1,19.566,2.2a0.191,0.191,0,0,1,.2.071,0.259,0.259,0,0,1,.012.173c0.035-.059.071-0.114,0.106-0.169A0.083,0.083,0,0,1,20,2.243a0.093,0.093,0,0,1,.016.13c-0.063.1-.13,0.208-0.192,0.31a2.693,2.693,0,0,0-.169.283C19.605,3.083,19.691,3.107,19.817,3A7.042,7.042,0,0,0,20.308,2.432Z"/></clipPath><linearGradient id="Degradado_sin_nombre_8" x1="18.968" y1="2.685" x2="20.33" y2="2.685" xlink:href="#Degradado_sin_nombre"/><clipPath id="clip-path-9"><path class="cls-1" d="M20.437,2.118h0c-0.024-.02-0.059.043-0.063,0.055a0.1,0.1,0,0,0,.024.122,0.2,0.2,0,0,0,.039-0.177m0.71,0.334a4.7,4.7,0,0,1-.565.636,0.211,0.211,0,0,1-.184.063c-0.149-.043-0.035-0.326.008-0.412a1.942,1.942,0,0,1,.216-0.345,0.668,0.668,0,0,1-.216-0.059,1.077,1.077,0,0,1-.079.118c-0.016.02-.039,0.008-0.02-0.019s0.047-.067.074-0.11A0.122,0.122,0,0,1,20.343,2.2a0.178,0.178,0,0,1,.043-0.086,0.046,0.046,0,0,1,.079,0,0.253,0.253,0,0,1-.043.192,0.4,0.4,0,0,0,.255-0.012,0.347,0.347,0,0,1,.09-0.031,0.087,0.087,0,0,1,.071.039,0.078,0.078,0,0,1-.008.086c-0.027.031-.051,0.067-0.075,0.1a4.419,4.419,0,0,0-.3.459c-0.02.032-.071,0.137-0.031,0.157a0.166,0.166,0,0,0,.129-0.039,3.5,3.5,0,0,0,.577-0.632A0.014,0.014,0,0,1,21.147,2.452Z"/></clipPath><linearGradient id="Degradado_sin_nombre_9" x1="20.305" y1="2.626" x2="21.152" y2="2.626" xlink:href="#Degradado_sin_nombre"/><clipPath id="clip-path-10"><path class="cls-1" d="M21.43,1.8h0a0.09,0.09,0,0,1,.114-0.047,0.092,0.092,0,0,1,.031.126A0.084,0.084,0,1,1,21.43,1.8M21.438,2.77a2.251,2.251,0,0,1-.341.353,0.159,0.159,0,0,1-.177.008A0.151,0.151,0,0,1,20.9,2.973c0.067-.169.161-0.349,0.247-0.518-0.012.012-.035,0-0.016-0.023,0.035-.047.071-0.1,0.11-0.161A0.154,0.154,0,0,1,21.3,2.2a0.077,0.077,0,0,1,.11.067,0.345,0.345,0,0,1-.047.106c-0.106.192-.236,0.4-0.334,0.6-0.027.055-.031,0.118,0.059,0.1a0.249,0.249,0,0,0,.1-0.063c0.169-.173.337-0.381,0.49-0.573,0.012-.016.031,0.008,0.02,0.019C21.615,2.558,21.524,2.668,21.438,2.77Z"/></clipPath><linearGradient id="Degradado_sin_nombre_10" x1="20.882" y1="2.454" x2="21.704" y2="2.454" xlink:href="#Degradado_sin_nombre"/><clipPath id="clip-path-11"><path class="cls-1" d="M22.183,2.656h0c0.008-.012.13-0.243,0.027-0.2a0.128,0.128,0,0,0-.074.149,0.112,0.112,0,0,0,.047.055m0.447-.2a0.669,0.669,0,0,1-.337.243,0.934,0.934,0,0,1-.314.373,0.332,0.332,0,0,1-.408.027,0.458,0.458,0,0,1-.027-0.475,0.717,0.717,0,0,1,.561-0.428,0.25,0.25,0,0,1,.208.055,0.185,0.185,0,0,1,.035.176c0,0.012-.019,0-0.019-0.008a0.157,0.157,0,0,0-.039-0.145,0.36,0.36,0,0,0-.412.149,1.445,1.445,0,0,0-.255.428,0.26,0.26,0,0,0-.012.228,0.151,0.151,0,0,0,.192.035,1.365,1.365,0,0,0,.365-0.436A0.117,0.117,0,0,1,22.109,2.6a0.171,0.171,0,0,1,.09-0.181,0.08,0.08,0,0,1,.122.031,0.294,0.294,0,0,1-.016.208,0.686,0.686,0,0,0,.306-0.231A0.014,0.014,0,1,1,22.631,2.452Z"/></clipPath><linearGradient id="Degradado_sin_nombre_11" x1="21.496" y1="2.689" x2="22.637" y2="2.689" xlink:href="#Degradado_sin_nombre"/><clipPath id="clip-path-12"><path class="cls-1" d="M6.191,0.386c-0.086.2-.192,0.4-0.31,0.653-1.038,2.236-2.1,4.45-3.145,6.675a0.446,0.446,0,0,1-.342.364,0.259,0.259,0,0,1-.225-0.4C3.41,5.253,3.432,5.21,5.143,1.883c-0.15.171-.3,0.342-0.449,0.5A6.225,6.225,0,0,1,2.447,4a3.631,3.631,0,0,1-.92.224c-0.118.011-.15-0.1-0.043-0.118A4.671,4.671,0,0,0,3.9,2.964,8.261,8.261,0,0,0,5.646.857c0.107-.193.2-0.353,0.31-0.546a0.13,0.13,0,0,1,.1-0.086,0.127,0.127,0,0,1,.139.16"/></clipPath><linearGradient id="Degradado_sin_nombre_12" x1="1.417" y1="4.151" x2="6.204" y2="4.151" xlink:href="#Degradado_sin_nombre"/><clipPath id="clip-path-13"><path class="cls-1" d="M11.281,0.257A2.39,2.39,0,0,1,9.088.792,4.978,4.978,0,0,0,7.536.632c-0.471,1-.952,1.99-1.423,3a2.509,2.509,0,0,1,1.968-.845A1.961,1.961,0,0,1,9.89,4.109C10.436,5.885,8.884,7.564,7.269,7.96a1.976,1.976,0,0,1-2.225-.685A1.585,1.585,0,0,1,5.2,5.563a1.066,1.066,0,0,1,.867-0.62,0.229,0.229,0,0,1,.161.332,0.35,0.35,0,0,1-.385.225c0.043-.011.139-0.139,0.086-0.193a0.4,0.4,0,0,0-.524.128,1.482,1.482,0,0,0-.2,1.883,1.958,1.958,0,0,0,2.268.353A3.449,3.449,0,0,0,9.451,4.066,1.748,1.748,0,0,0,7.28,3.007,2.223,2.223,0,0,0,6.2,3.659a2.766,2.766,0,0,0-.267.353c-0.064.128-.171,0.075-0.107-0.032,0.332-.7.663-1.38,1.508-3.167,0.043-.086.075-0.16,0.118-0.236A0.992,0.992,0,0,1,8.178.15c0.792-.118,1.476.535,2.268,0.4a2.047,2.047,0,0,0,.792-0.31c0.064-.043.075-0.01,0.043,0.021"/></clipPath><linearGradient id="Degradado_sin_nombre_13" x1="4.854" y1="4.093" x2="11.297" y2="4.093" xlink:href="#Degradado_sin_nombre"/></defs><title>Mundo_Cuervo_15Aniversario2018-webSVG</title><path class="cls-2" d="M35.238,3.521h0a0.145,0.145,0,1,1,.138-0.145,0.138,0.138,0,0,1-.138.145m0-.335a0.191,0.191,0,1,0,.2.19A0.188,0.188,0,0,0,35.238,3.186Z"/><path class="cls-2" d="M35.246,3.358h-0.04V3.309h0.032c0.031,0,.04.006,0.04,0.021s-0.007.028-.031,0.028m0.079-.024c0-.047-0.031-0.062-0.086-0.062H35.161V3.481h0.045V3.4h0.021l0.045,0.086h0.049L35.273,3.39A0.05,0.05,0,0,0,35.325,3.334Z"/><path class="cls-2" d="M25.808,6.532h0c0.02,0.013,0-2.25-.018-3.072,0-.059,0-0.318,0-0.318s-0.034.043-.061,0.075a1.211,1.211,0,0,0-.118.163l0,2.417-0.283.287a1.842,1.842,0,0,0,.472.448M25.3,6.059h0c0.011-.027,0-2.454,0-2.454A2.274,2.274,0,0,1,25.786,3c0-.057,0-0.045,0-0.1l-0.33.268a2.347,2.347,0,0,0-.579,1.6A2.6,2.6,0,0,0,25.3,6.059Zm1.6,0.677h0A1.981,1.981,0,0,0,27.528,6.5L27.552,6.53s-0.216.121-.3,0.175c-0.2.118-.456,0.284-0.655,0.41a1.338,1.338,0,0,1-.232.145,2.094,2.094,0,0,1-1.2-.414,2.718,2.718,0,0,1-.657-0.794,2.936,2.936,0,0,1-.286-0.811,3.231,3.231,0,0,1-.013-0.519A2.128,2.128,0,0,1,24.659,3.4c0.378-.223,1.394-0.846,1.838-1.127l0.214-.139a0.2,0.2,0,0,0,0,.122,2.728,2.728,0,0,0,.639.482,0.607,0.607,0,0,0,.353-0.076l0.039,0.011a3.747,3.747,0,0,0-.7.5,0.172,0.172,0,0,1-.137.061,1.4,1.4,0,0,1-.735-0.44,0.175,0.175,0,0,1-.077-0.107l-0.055.05s-0.01,3.864,0,3.914A3.094,3.094,0,0,0,26.9,6.736Zm7.52-.209h0a2.386,2.386,0,0,1,.868-0.558,16.629,16.629,0,0,1-.028-2A1.554,1.554,0,0,0,34.5,3.38a1.233,1.233,0,0,1-.834.541c0.092,0.681-.008,1.5.054,2.187A1,1,0,0,0,34.423,6.527ZM34.255,3.879h0a0.323,0.323,0,0,1,.411.23,7.944,7.944,0,0,1,.015.93C34.675,5.428,34.7,5.7,34.7,6.065c-0.2,0-.38.027-0.408-0.151C34.193,5.244,34.318,4.476,34.255,3.879ZM30.19,5.9h0l-0.007.057a1.6,1.6,0,0,1,.717.57,1.425,1.425,0,0,1,.605-0.753,0.358,0.358,0,0,0-.119-0.134,0.783,0.783,0,0,1-.068.134,0.353,0.353,0,0,1-.287.169,0.147,0.147,0,0,1-.076-0.177c0-.552-0.019-1.177-0.013-1.651a0.3,0.3,0,0,1,.178-0.1,0.352,0.352,0,0,1,.253.339,2.2,2.2,0,0,1,.261-0.548,2.488,2.488,0,0,0-.356-0.361l-0.03.086a2.416,2.416,0,0,1-.317.357,0.6,0.6,0,0,0-.324-0.474,1.361,1.361,0,0,1-.425.444,0.388,0.388,0,0,1,.175.332c0,0.108,0,1.588,0,1.661S30.19,5.9,30.19,5.9Zm-2,.11h0c0-.081,0-1.93,0-2a0.222,0.222,0,0,1,.132-0.127,2.836,2.836,0,0,1-.5-0.448,0.855,0.855,0,0,1-.447.488,0.241,0.241,0,0,1,.207.127c0,0.053,0,1.464,0,1.464a0.419,0.419,0,0,1-.207.485,0.272,0.272,0,0,1-.151-0.15c-0.007-.634.012-1.431-0.019-2.006a0.543,0.543,0,0,0-.293-0.4,1.066,1.066,0,0,1-.487.512c0.088,0.026.177,0.026,0.177,0.11s0.037,0.883.018,1.234a1.164,1.164,0,0,0,.317,1.118,0.445,0.445,0,0,0,.253.075,1.2,1.2,0,0,1,.4-0.412,0.5,0.5,0,0,0,.383.42,1.233,1.233,0,0,1,.355-0.393A0.149,0.149,0,0,1,28.185,6.015ZM33,3.4h0a1.2,1.2,0,0,1-.37.482,0.256,0.256,0,0,1,.191.2c0.013,0.155.027,0.924,0.009,1.618a1.372,1.372,0,0,1-.225.378,0.2,0.2,0,0,1-.159-0.2l-0.011-1.9a0.609,0.609,0,0,0-.338-0.558,3.731,3.731,0,0,1-.389.459,0.205,0.205,0,0,1,.168.227V5.982l0.087,0.2a0.875,0.875,0,0,0,.624.323,2.844,2.844,0,0,1,.735-0.821s0.072-.938.047-1.276A1.03,1.03,0,0,0,33,3.4Zm-3.22,2.473h0l0.115-.115L29.742,5.6a0.445,0.445,0,0,1-.2.335,0.2,0.2,0,0,1-.231-0.08,0.8,0.8,0,0,1-.042-0.639A2.757,2.757,0,0,1,30.116,4.3a2.6,2.6,0,0,0-.536-0.89,2.4,2.4,0,0,1-1.014.565,0.33,0.33,0,0,1,.075.127c0.014,0.632.024,1.127,0.013,1.85a1.63,1.63,0,0,0,.623.552A1.372,1.372,0,0,1,29.777,5.873Zm-0.509-2a1.654,1.654,0,0,1,.32.614,3.871,3.871,0,0,0-.351.485L29.222,3.882Z"/><path class="cls-2" d="M16.591,4.1c0-.162-0.034-0.162-0.308-0.2v-0.1h0.634l1.165,1.774h0.034L18.1,4.1c0-.162-0.034-0.162-0.309-0.2v-0.1h0.754v0.1c-0.274.033-.308,0.033-0.308,0.2v2H18.065l-1.32-2.018H16.711L16.729,5.8c0,0.163.034,0.163,0.309,0.2v0.1H16.283v-0.1c0.274-.033.308-0.033,0.308-0.2V4.1Z"/><path class="cls-2" d="M18.749,6.007h0c0.276-.033.311-0.033,0.311-0.2v-1.7c0-.163-0.034-0.163-0.311-0.2v-0.1h1.035a1.088,1.088,0,0,1,1.208,1.147,1.112,1.112,0,0,1-1.208,1.148H18.749v-0.1Zm1.035-.017a0.919,0.919,0,0,0,.9-1.033,0.893,0.893,0,0,0-.932-1.033H19.335V5.991h0.449Z"/><path class="cls-2" d="M12.935,4.169H12.9L12.2,6.106h-0.13L11.324,4.169H11.292L11.308,5.8c0,0.163.032,0.163,0.293,0.2v0.1H10.885v-0.1c0.261-.032.293-0.032,0.293-0.2V4.1c0-.163-0.032-0.163-0.293-0.2v-0.1h0.6L12.2,5.65h0.032l0.684-1.839h0.57v0.1c-0.26.033-.293,0.033-0.293,0.2V5.8c0,0.163.033,0.163,0.293,0.2v0.1H12.642v-0.1c0.26-.032.293-0.032,0.293-0.2V4.169Z"/><path class="cls-2" d="M21.519,4.844h0a1.105,1.105,0,0,0,.567,1.061,0.866,0.866,0,0,0,.763-0.062,0.979,0.979,0,0,0,.366-0.853,1.1,1.1,0,0,0-.331-0.865,0.907,0.907,0,0,0-.558-0.182,0.794,0.794,0,0,0-.807.9M21.2,4.973a1.093,1.093,0,0,1,.318-0.827,1.2,1.2,0,0,1,.88-0.335,1.037,1.037,0,0,1,1.15,1.077,1.174,1.174,0,0,1-.351.871,1.21,1.21,0,0,1-.887.348,1.1,1.1,0,0,1-.812-0.314A1.235,1.235,0,0,1,21.2,4.973Z"/><path class="cls-2" d="M15.29,3.872V3.811h0.789V3.872H16a0.228,0.228,0,0,0-.2.111,0.513,0.513,0,0,0-.034.239V5.13a1.619,1.619,0,0,1-.069.526,0.643,0.643,0,0,1-.1.175,0.623,0.623,0,0,1-.163.141,0.889,0.889,0,0,1-.231.1,1.167,1.167,0,0,1-.3.036,1.47,1.47,0,0,1-.323-0.032,0.8,0.8,0,0,1-.236-0.094,0.6,0.6,0,0,1-.163-0.148,0.826,0.826,0,0,1-.1-0.2,1.882,1.882,0,0,1-.054-0.553V4.208A0.829,0.829,0,0,0,14,4.038a0.253,0.253,0,0,0-.043-0.1,0.149,0.149,0,0,0-.075-0.05,0.354,0.354,0,0,0-.106-0.014H13.693V3.811h0.965V3.872H14.573a0.376,0.376,0,0,0-.1.013,0.135,0.135,0,0,0-.073.048,0.24,0.24,0,0,0-.046.1,0.747,0.747,0,0,0-.016.174V5.184a2.179,2.179,0,0,0,.02.289,0.71,0.71,0,0,0,.082.25,0.451,0.451,0,0,0,.176.175,0.61,0.61,0,0,0,.3.066,0.815,0.815,0,0,0,.21-0.026,0.831,0.831,0,0,0,.184-0.07,0.6,0.6,0,0,0,.144-0.108,0.408,0.408,0,0,0,.091-0.136,1.4,1.4,0,0,0,.064-0.509V4.207a0.461,0.461,0,0,0-.046-0.261,0.236,0.236,0,0,0-.189-0.074H15.29Z"/><g class="cls-3"><rect class="cls-4" x="10.917" y="0.188" width="3.783" height="2.998"/></g><g class="cls-5"><rect class="cls-6" x="13.644" y="2.145" width="1.448" height="1.024"/></g><g class="cls-7"><rect class="cls-8" x="14.81" y="1.734" width="0.832" height="1.44"/></g><g class="cls-9"><rect class="cls-10" x="15.528" y="2.138" width="1.228" height="1.059"/></g><g class="cls-11"><rect class="cls-12" x="16.486" y="2.177" width="1.138" height="1.016"/></g><g class="cls-13"><rect class="cls-14" x="17.533" y="2.079" width="0.91" height="1.095"/></g><g class="cls-15"><rect class="cls-16" x="18.177" y="1.977" width="1.048" height="1.209"/></g><g class="cls-17"><rect class="cls-18" x="18.962" y="2.185" width="1.377" height="1.001"/></g><g class="cls-19"><rect class="cls-20" x="20.249" y="2.079" width="0.911" height="1.095"/></g><g class="cls-21"><rect class="cls-22" x="20.877" y="1.734" width="0.832" height="1.44"/></g><g class="cls-23"><rect class="cls-24" x="21.458" y="2.169" width="1.189" height="1.04"/></g><path class="cls-2" d="M24.186,8.564h0.027a0.024,0.024,0,0,1,.02.006,0.033,0.033,0,0,1,.006.022v0.3c0,0.019,0,.037,0,0.055a0.169,0.169,0,0,0,.008.048,0.136,0.136,0,0,0,.03.052,0.14,0.14,0,0,0,.049.033,0.053,0.053,0,0,0,.018.005l0.019,0H24.43l0.018,0,0.017-.006a0.122,0.122,0,0,0,.048-0.031,0.142,0.142,0,0,0,.028-0.051,0.176,0.176,0,0,0,.008-0.046V8.595a0.035,0.035,0,0,1,.006-0.025,0.017,0.017,0,0,1,.015-0.006h0.037a0.02,0.02,0,0,1,.014.008,0.031,0.031,0,0,1,0,.018V8.951A0.2,0.2,0,0,1,24.617,9a0.235,0.235,0,0,1-.029.067,0.157,0.157,0,0,1-.049.047l-0.026.013-0.029.01-0.015,0-0.015,0H24.438l-0.016,0H24.347l-0.013,0-0.013,0-0.027-.008-0.025-.009-0.011-.006-0.011-.007a0.153,0.153,0,0,1-.04-0.037,0.192,0.192,0,0,1-.027-0.049A0.159,0.159,0,0,1,24.173,9l-0.006-.027V8.944a0.037,0.037,0,0,1,0-.013V8.585l0-.012a0.018,0.018,0,0,1,.012-0.008h0.006"/><path class="cls-2" d="M22.365,8.564h0.414l0.014,0a0.017,0.017,0,0,1,.008.011V8.6l0,0.01-0.005.007a0.035,0.035,0,0,1-.018,0H22.63l-0.012,0-0.007.011a0.042,0.042,0,0,0,0,.018v0.46a0.016,0.016,0,0,1-.009.013l-0.009,0H22.556a0.019,0.019,0,0,1-.016-0.006,0.029,0.029,0,0,1-.005-0.015V8.66a0.051,0.051,0,0,0,0-.019,0.018,0.018,0,0,0-.018-0.014H22.374a0.051,0.051,0,0,1-.019,0l0,0,0,0,0-.01a0.1,0.1,0,0,1,0-.015l0-.014,0-.009,0,0,0.006,0h0.006"/><path class="cls-2" d="M22.968,8.564h0.35a0.022,0.022,0,0,1,.014,0l0,0,0,0,0,0.018,0,0.019a0.015,0.015,0,0,1-.014.013H23.055a0.049,0.049,0,0,0-.025,0,0.02,0.02,0,0,0-.008.017V8.8a0.017,0.017,0,0,0,.01.013l0.011,0H23.3l0.012,0,0,0.007,0,0.012a0.053,0.053,0,0,1,0,.013l0,0.012a0.017,0.017,0,0,1-.007.01l0,0H23.044l-0.014,0a0.017,0.017,0,0,0-.008.012V9.057a0.018,0.018,0,0,0,.006.014l0.013,0h0.287a0.021,0.021,0,0,1,.013.009l0,0.008V9.126l-0.007.009-0.013,0H22.961a0.015,0.015,0,0,1-.012-0.008l0-.013V8.585l0-.011a0.017,0.017,0,0,1,.012-0.008h0.007"/><path class="cls-2" d="M24.035,8.838h0V8.9l0,0.013,0,0.013,0,0.013,0,0.013-0.013.036a0.173,0.173,0,0,1-.016.033l-0.009.015-0.01.015-0.008.009-0.007.011a0.016,0.016,0,0,0,0,.018L23.976,9.1l0.009,0.008,0.009,0.007L24,9.122l0.009,0.007,0,0.006a0.01,0.01,0,0,1,0,.009l-0.005.01L24,9.163,24,9.171l-0.007.005H23.981l-0.008,0-0.007-.005-0.006,0-0.018-.014-0.018-.013-0.011-.009L23.9,9.121a0.015,0.015,0,0,0-.011,0l-0.009,0-0.017.007-0.017.006-0.022.005-0.023,0H23.775l-0.014,0-0.014,0H23.724l-0.015,0-0.015,0-0.014,0-0.022-.008-0.021-.008L23.614,9.11a0.27,0.27,0,0,1-.1-0.121l-0.006-.017L23.5,8.954l0-.006V8.942l0-.015,0-.016V8.805l0-.011V8.784L23.5,8.76,23.5,8.737a0.263,0.263,0,0,1,.155-0.17,0.117,0.117,0,0,1,.028-0.009l0.031-.007,0.024,0H23.75a0.306,0.306,0,0,1,.09.011,0.264,0.264,0,0,1,.069.03L23.922,8.6l0.012,0.008,0,0,0,0L23.95,8.624l0.006,0,0.006,0.007,0.005,0.006,0.018,0.025A0.146,0.146,0,0,1,24,8.694l0.01,0.023L24.02,8.743l0.005,0.02,0.005,0.02,0,0.022V8.838Zm-0.077.043,0-.014V8.8l0-.018,0-.017,0-.007,0-.006L23.94,8.736l-0.006-.015,0-.008-0.005-.008L23.918,8.7l-0.006-.009a0.185,0.185,0,0,0-.031-0.032,0.162,0.162,0,0,0-.038-0.024,0.1,0.1,0,0,0-.022-0.008L23.8,8.616a0.075,0.075,0,0,0-.024,0H23.724L23.7,8.62l-0.02.006a0.17,0.17,0,0,0-.068.052,0.273,0.273,0,0,0-.04.079l0,0.018,0,0.019V8.88l0,0.022,0,0.01V8.92l0.006,0.02,0.006,0.02A0.255,0.255,0,0,0,23.6,9a0.19,0.19,0,0,0,.027.034l0.006,0.006,0.007,0.007,0.009,0.007,0.01,0.007,0,0,0,0,0.024,0.01,0.026,0.007h0.02l0.011,0h0.033l0.015,0,0.014,0,0.008,0,0.005-.008,0-.009-0.007-.007-0.008-.007L23.8,9.037l-0.007,0-0.006-.007,0-.006V9.012l0-.008L23.8,9a0.037,0.037,0,0,1,.012-0.013,0.016,0.016,0,0,1,.015,0l0.012,0.008,0.02,0.015,0.02,0.015,0.009,0.005a0.013,0.013,0,0,0,.012,0,0.035,0.035,0,0,0,.018-0.016l0.013-.022,0-.007,0-.007c0.006-.015.012-0.031,0.017-0.047V8.919l0-.009V8.9l0-.01V8.881Z"/><path class="cls-2" d="M24.809,8.566h0.027l0.013,0,0.008,0a0.026,0.026,0,0,1,.005.016V9.114a0.034,0.034,0,0,1,0,.018l-0.007,0-0.011,0H24.8A0.016,0.016,0,0,1,24.79,9.13l0-.013V8.592a0.032,0.032,0,0,1,0-.017A0.02,0.02,0,0,1,24.8,8.567h0.006"/><path class="cls-2" d="M25.1,8.564h0.027l0.013,0,0.008,0a0.025,0.025,0,0,1,0,.017V9.046l0,0.017a0.021,0.021,0,0,0,.009.009l0.01,0h0.266a0.021,0.021,0,0,1,.014.009l0,0.008V9.1a0.063,0.063,0,0,1,0,.012l0,0.009-0.007.009-0.012,0H25.088a0.016,0.016,0,0,1-.012-0.008l0-.013V8.585l0-.011a0.022,0.022,0,0,1,.012-0.008H25.1"/><path class="cls-2" d="M26.049,9.1h0l0,0.01,0,0.012V9.128l-0.007.008-0.01,0H26a0.039,0.039,0,0,1-.02,0,0.026,0.026,0,0,1-.012-0.017L25.965,9.1c-0.006-.014-0.011-0.029-0.016-0.043s-0.01-.03-0.016-0.044l0-.014,0-.012-0.008-.01L25.9,8.966H25.7l-0.015,0-0.01.007a0.05,0.05,0,0,0-.009.018l-0.007.02c-0.005.012-.01,0.025-0.015,0.039a0.406,0.406,0,0,1-.015.039l0,0.011,0,0.013-0.005.012-0.006.008a0.032,0.032,0,0,1-.017.005H25.555l-0.01,0,0-.007V9.116l0-.01,0-.007c0.007-.017.014-0.034,0.02-0.051s0.013-.034.02-0.051L25.6,8.961l0.014-.035q0.024-.058.046-0.117t0.046-.118l0.016-.043c0.005-.015.01-0.029,0.016-0.043l0.008-.02a0.032,0.032,0,0,1,.011-0.016l0.011,0H25.81a0.047,0.047,0,0,1,.028.006,0.035,0.035,0,0,1,.01.016l0.008,0.02c0.005,0.013.01,0.025,0.014,0.037L25.885,8.68,25.9,8.713l0.013,0.033c0.016,0.039.032,0.079,0.046,0.119s0.031,0.08.047,0.119L26.009,9l0,0.014,0.017,0.043L26.049,9.1m-0.173-.2a0.014,0.014,0,0,0,.009-0.008,0.021,0.021,0,0,0,0-.013l0-.014-0.005-.012,0-.006V8.843l0-.013-0.005-.014c-0.008-.019-0.015-0.039-0.021-0.059s-0.013-.04-0.021-0.059L25.814,8.68l-0.007-.017,0-.008-0.008,0,0,0,0,0,0,0.008,0,0.009-0.006.018-0.007.018a0.6,0.6,0,0,0-.024.064q-0.01.032-.023,0.063l0,0.008,0,0.008,0,0.013,0,0.013V8.887l0,0.008a0.02,0.02,0,0,0,.017.007h0.132A0.045,0.045,0,0,0,25.876,8.9Z"/><path class="cls-2" d="M26.528,8.564h0.35a0.022,0.022,0,0,1,.015,0l0,0,0,0,0,0.018,0,0.019a0.015,0.015,0,0,1-.014.013H26.616a0.051,0.051,0,0,0-.025,0,0.019,0.019,0,0,0-.008.017V8.8a0.018,0.018,0,0,0,.01.013l0.011,0h0.259l0.012,0,0,0.007,0,0.012a0.06,0.06,0,0,1,0,.013l0,0.012a0.015,0.015,0,0,1-.007.01l0,0H26.6l-0.014,0a0.019,0.019,0,0,0-.008.012V9.057a0.017,0.017,0,0,0,.007.014l0.013,0h0.287a0.021,0.021,0,0,1,.013.009l0,0.008V9.116l0,0.009L26.9,9.134l-0.013,0H26.522a0.015,0.015,0,0,1-.012-0.008l0-.013V8.585l0-.011a0.017,0.017,0,0,1,.012-0.008h0.007"/><path class="cls-2" d="M27.262,8.553a0.281,0.281,0,0,1,.081.007,0.2,0.2,0,0,1,.063.027l0.009,0.006L27.424,8.6l0,0,0,0,0,0,0,0L27.445,8.62l0.007,0.008,0.005,0.008,0,0.009a0.1,0.1,0,0,1,.011.025L27.481,8.7a0.042,0.042,0,0,1,0,.014l0,0.012a0.016,0.016,0,0,1-.013.006H27.421l0,0,0,0a0.045,0.045,0,0,1-.007-0.018L27.4,8.689a0.107,0.107,0,0,0-.039-0.048,0.13,0.13,0,0,0-.045-0.02l-0.009,0-0.01,0H27.293l-0.013,0H27.267a0.166,0.166,0,0,0-.07.013,0.109,0.109,0,0,0-.029.017,0.068,0.068,0,0,0-.019.027l0,0.013,0,0.015a0.051,0.051,0,0,0,0,.015l0,0.014a0.076,0.076,0,0,0,.014.028,0.087,0.087,0,0,0,.024.018,0.129,0.129,0,0,0,.04.017L27.265,8.8l0.015,0,0.015,0,0.024,0.005,0.024,0.006h0.011l0.015,0,0.015,0,0.031,0.012a0.181,0.181,0,0,1,.029.015,0.174,0.174,0,0,1,.032.026,0.125,0.125,0,0,1,.023.035l0,0.015,0,0.015,0,0.009V9l0,0.013,0,0.013-0.009.023a0.094,0.094,0,0,1-.012.021,0.135,0.135,0,0,1-.035.035,0.3,0.3,0,0,1-.045.026l-0.016.006-0.017,0-0.018,0-0.02,0H27.247l-0.015,0H27.218l-0.016,0-0.016,0A0.225,0.225,0,0,1,27.12,9.1a0.172,0.172,0,0,1-.047-0.052l-0.011-.022-0.008-.024,0-.01,0-.009V8.972a0.019,0.019,0,0,1,0-.013,0.018,0.018,0,0,1,.013-0.007h0.043L27.116,8.96l0,0.009,0,0.009,0,0.011,0,0.011a0.13,0.13,0,0,0,.071.072l0.035,0.012,0.013,0h0.088l0.014,0,0.014,0a0.2,0.2,0,0,0,.037-0.02,0.074,0.074,0,0,0,.025-0.032l0-.013,0-.013,0-.015,0-.015V8.964l0-.006a0.073,0.073,0,0,0-.013-0.023,0.113,0.113,0,0,0-.02-0.017,0.147,0.147,0,0,0-.038-0.02l-0.044-.012-0.047-.01-0.047-.012-0.026-.007L27.171,8.85h0L27.15,8.842l-0.015-.008A0.284,0.284,0,0,1,27.1,8.81a0.092,0.092,0,0,1-.024-0.034L27.071,8.76l0-.017V8.732a0.066,0.066,0,0,1,0-.024l0-.023,0-.017,0.005-.016a0.122,0.122,0,0,1,.029-0.04,0.262,0.262,0,0,1,.039-0.03l0,0,0,0A0.254,0.254,0,0,1,27.2,8.562l0.012,0,0.012,0h0.014l0.014,0h0.014"/><path class="cls-2" d="M28.107,8.717h0V8.761a0.021,0.021,0,0,1,0,.01l0,0.01,0,0.01,0,0.012,0,0.012,0,0,0,0a0.177,0.177,0,0,1-.02.029l-0.005.007-0.006,0-0.006,0,0,0-0.017.01a0.064,0.064,0,0,1-.021.01L27.985,8.9l-0.013,0-0.013,0H27.785a0.032,0.032,0,0,0-.021.005,0.027,0.027,0,0,0-.008.023V9.107a0.043,0.043,0,0,1,0,.022l-0.008.006-0.011,0H27.7a0.017,0.017,0,0,1-.014-0.008l0-.013V8.591a0.029,0.029,0,0,1,0-.017A0.02,0.02,0,0,1,27.7,8.566h0.249A0.185,0.185,0,0,1,28,8.572a0.176,0.176,0,0,1,.059.032,0.145,0.145,0,0,1,.037.053L28.1,8.676,28.105,8.7V8.717m-0.076.029a0.054,0.054,0,0,0,0-.026l0-.024a0.091,0.091,0,0,0-.022-0.035,0.1,0.1,0,0,0-.034-0.022,0.131,0.131,0,0,0-.041-0.009h-0.16a0.017,0.017,0,0,0-.013.011,0.055,0.055,0,0,0,0,.021V8.808a0.043,0.043,0,0,0,0,.023,0.016,0.016,0,0,0,.013.008h0.153l0.023,0a0.2,0.2,0,0,0,.038-0.013A0.065,0.065,0,0,0,28.014,8.8a0.084,0.084,0,0,0,.01-0.02l0.007-.023V8.746Z"/><path class="cls-2" d="M28.31,8.566h0.027l0.013,0,0.008,0a0.024,0.024,0,0,1,.005.016V9.114a0.035,0.035,0,0,1,0,.018l-0.008,0-0.011,0H28.3A0.016,0.016,0,0,1,28.29,9.13l0-.013V8.592a0.032,0.032,0,0,1,0-.017A0.022,0.022,0,0,1,28.3,8.567H28.31"/><path class="cls-2" d="M29.023,9.118h0a0.012,0.012,0,0,1,0,.016l-0.01,0H28.972a0.032,0.032,0,0,1-.02-0.006,0.019,0.019,0,0,1-.008-0.012l0-.017V9.057l0-.037,0-.011,0-.012-0.006-.029a0.12,0.12,0,0,0-.008-0.027A0.08,0.08,0,0,0,28.867,8.9a0.071,0.071,0,0,0-.023,0H28.67l-0.01,0L28.652,8.9a0.046,0.046,0,0,0-.005.026V9.1a0.053,0.053,0,0,1,0,.025l-0.006.007-0.006,0-0.007,0H28.593a0.023,0.023,0,0,1-.014,0,0.016,0.016,0,0,1-.007-0.015V8.588a0.027,0.027,0,0,1,0-.016,0.026,0.026,0,0,1,.012-0.008H28.88l0.013,0,0.014,0,0.028,0.01L28.959,8.6a0.126,0.126,0,0,1,.033.034,0.191,0.191,0,0,1,.02.046l0,0.014,0,0.013V8.737l0,0.012,0,0.011L29,8.783a0.067,0.067,0,0,1-.01.02l-0.005.007-0.005.007h0l0,0,0,0-0.012.009-0.012.008-0.007.005,0,0.008,0,0.008,0.008,0,0.016,0.012a0.057,0.057,0,0,1,.013.015,0.073,0.073,0,0,1,.013.025L29,8.955l0,0.013L29,8.98V9.01a0.034,0.034,0,0,1,0,.012,0.032,0.032,0,0,0,0,.013V9.048l0,0.016,0,0.016,0,0.009,0,0.009Zm-0.1-.334a0.064,0.064,0,0,0,.008-0.019l0.006-.021V8.737a0.079,0.079,0,0,0,0-.024,0.1,0.1,0,0,0,0-.022,0.085,0.085,0,0,0-.051-0.055,0.1,0.1,0,0,0-.038-0.007H28.662a0.018,0.018,0,0,0-.013.01,0.052,0.052,0,0,0,0,.02V8.8a0.032,0.032,0,0,0,.005.02,0.019,0.019,0,0,0,.012.007h0.129a0.391,0.391,0,0,0,.055,0,0.15,0.15,0,0,0,.045-0.013A0.074,0.074,0,0,0,28.926,8.784Z"/><path class="cls-2" d="M29.231,8.566h0.027l0.012,0,0.008,0a0.027,0.027,0,0,1,.005.016V9.114a0.034,0.034,0,0,1,0,.018l-0.008,0-0.011,0H29.225a0.016,0.016,0,0,1-.014-0.008l0-.013V8.592a0.032,0.032,0,0,1,0-.017,0.022,0.022,0,0,1,.013-0.008H29.23"/><path class="cls-2" d="M29.455,8.564h0.414l0.014,0a0.017,0.017,0,0,1,.008.011V8.6l0,0.01-0.005.007a0.036,0.036,0,0,1-.018,0H29.72l-0.012,0L29.7,8.643a0.049,0.049,0,0,0,0,.018v0.46a0.016,0.016,0,0,1-.009.013l-0.01,0H29.646a0.019,0.019,0,0,1-.016-0.006,0.026,0.026,0,0,1-.005-0.015V8.66l0-.019A0.019,0.019,0,0,0,29.6,8.627H29.464a0.051,0.051,0,0,1-.019,0l0,0,0,0,0-.01a0.083,0.083,0,0,1,0-.015l0-.014,0-.009,0,0,0.006,0h0.007"/><path class="cls-2" d="M30.055,8.564h0.027a0.024,0.024,0,0,1,.02.006,0.031,0.031,0,0,1,.006.022v0.3c0,0.019,0,.037,0,0.055a0.153,0.153,0,0,0,.008.048,0.131,0.131,0,0,0,.03.052,0.148,0.148,0,0,0,.049.033,0.057,0.057,0,0,0,.019.005l0.019,0H30.3l0.018,0,0.017-.006a0.123,0.123,0,0,0,.048-0.031,0.138,0.138,0,0,0,.028-0.051,0.181,0.181,0,0,0,.008-0.046c0-.017,0-0.034,0-0.052v-0.3a0.036,0.036,0,0,1,.006-0.025,0.018,0.018,0,0,1,.015-0.006h0.036a0.019,0.019,0,0,1,.015.008,0.034,0.034,0,0,1,0,.018v0.3c0,0.02,0,.039,0,0.059A0.211,0.211,0,0,1,30.486,9a0.249,0.249,0,0,1-.03.067,0.154,0.154,0,0,1-.049.047l-0.026.013-0.029.01-0.015,0-0.015,0H30.307l-0.017,0H30.215l-0.013,0-0.013,0-0.027-.008-0.025-.009-0.011-.006-0.011-.007a0.151,0.151,0,0,1-.04-0.037,0.207,0.207,0,0,1-.027-0.049A0.147,0.147,0,0,1,30.041,9l-0.006-.027V8.944a0.032,0.032,0,0,1,0-.013V8.585l0-.012a0.018,0.018,0,0,1,.012-0.008h0.007"/><path class="cls-2" d="M28.374,8.408H28.4l0.014,0,0.009,0V8.424l-0.007.01-0.009.009L28.4,8.451,28.4,8.46l-0.006.007-0.007.007,0,0,0,0-0.006.007-0.007.007,0,0.006-0.006,0L28.35,8.51l-0.008.006a0.053,0.053,0,0,1-.018.005,0.032,0.032,0,0,1-.02,0l0-.005V8.506l0-.012,0.007-.01,0.014-.023,0.015-.023,0.006-.012,0.009-.01,0.011-.006h0.008"/><path class="cls-2" d="M31.109,8.745h0l0,0c0.01-.034.027-0.092,0.041-0.147,0-.015,0-0.017-0.016-0.021l-0.006,0,0.007,0,0.046,0s0,0.007,0,.011c-0.017.057-.036,0.127-0.051,0.179s-0.029.1-.044,0.153c0,0.009,0,.01,0,0.01a0.08,0.08,0,0,0,.04-0.031c0.007-.009.007,0,0,0a0.1,0.1,0,0,1-.065.052,0.01,0.01,0,0,1-.011-0.012c0-.008.012-0.037,0.023-0.078,0,0,0-.01,0,0a0.2,0.2,0,0,1-.11.091,0.027,0.027,0,0,1-.023-0.032,0.228,0.228,0,0,1,.077-0.141,0.12,0.12,0,0,1,.065-0.033,0.029,0.029,0,0,1,.024.008m-0.07.031a0.268,0.268,0,0,0-.072.144,0.009,0.009,0,0,0,.011.011,0.112,0.112,0,0,0,.056-0.041,0.29,0.29,0,0,0,.061-0.1,0.073,0.073,0,0,0,0-.033,0.014,0.014,0,0,0-.013-0.013A0.064,0.064,0,0,0,31.04,8.776Z"/><path class="cls-2" d="M31.413,8.763h0a0.062,0.062,0,0,1-.028.041,0.135,0.135,0,0,1-.074.029l0,0a0.191,0.191,0,0,0-.013.06,0.022,0.022,0,0,0,.023.026,0.069,0.069,0,0,0,.046-0.031h0l0,0.015a0.072,0.072,0,0,1-.058.037,0.044,0.044,0,0,1-.033-0.05,0.211,0.211,0,0,1,.037-0.1,0.115,0.115,0,0,1,.078-0.053,0.024,0.024,0,0,1,.028.025m-0.1.061h0a0.107,0.107,0,0,0,.079-0.064,0.014,0.014,0,0,0-.011-0.016A0.107,0.107,0,0,0,31.311,8.825Z"/><path class="cls-2" d="M31.907,8.564h0.064l0.012,0a0.026,0.026,0,0,1,.01.013L32,8.6l0.011,0.031,0.012,0.031,0.01,0.03,0.011,0.029,0.009,0.023,0.009,0.023c0.01,0.024.019,0.048,0.027,0.073s0.018,0.049.027,0.073l0,0.008,0,0.008,0.014,0.036L32.151,9l0.007,0.017a0.014,0.014,0,0,0,.01.011h0l0,0,0.006-.009,0-.01L32.2,8.97l0.013-.034,0-.008,0-.009,0.011-.031,0.012-.032c0.013-.031.025-0.062,0.036-0.094s0.023-.063.036-0.094l0.013-.033L32.339,8.6l0.006-.016a0.023,0.023,0,0,1,.008-0.014l0.013,0,0.017,0h0.052l0.012,0a0.017,0.017,0,0,1,.008.014V9.115a0.02,0.02,0,0,1,0,.014l-0.007.006-0.011,0H32.4a0.015,0.015,0,0,1-.013-0.007l0-.005,0-.007V9.11a0.054,0.054,0,0,1,0-.011V8.763c0-.014,0-0.027,0-0.04V8.705a0.009,0.009,0,0,0-.009-0.01h0a0.016,0.016,0,0,0-.009.01l-0.006.015-0.01.028-0.011.028,0,0.007,0,0.007a0.248,0.248,0,0,0-.011.029,0.227,0.227,0,0,1-.011.03L32.3,8.876,32.292,8.9c-0.011.025-.02,0.051-0.029,0.076s-0.018.05-.028,0.075l-0.011.029-0.01.029-0.008.016a0.021,0.021,0,0,1-.014.011H32.156a0.019,0.019,0,0,1-.013,0,0.023,0.023,0,0,1-.009-0.011l-0.007-.016-0.012-.034L32.1,9.039a0.212,0.212,0,0,1-.011-0.029,0.235,0.235,0,0,0-.011-0.029c-0.012-.03-0.024-0.061-0.034-0.091S32.023,8.829,32.011,8.8L32,8.764l-0.013-.033-0.007-.017A0.044,0.044,0,0,0,31.97,8.7l0,0H31.96V8.707l0,0.01v0.4a0.024,0.024,0,0,1,0,.014,0.017,0.017,0,0,1-.014.007H31.907l-0.009,0a0.015,0.015,0,0,1-.012-0.013V8.589a0.025,0.025,0,0,1,0-.015A0.02,0.02,0,0,1,31.9,8.566h0.007"/><path class="cls-2" d="M32.686,8.564h0.35a0.023,0.023,0,0,1,.015,0l0,0,0,0V8.595a0.069,0.069,0,0,1,0,.019,0.015,0.015,0,0,1-.013.013H32.773a0.049,0.049,0,0,0-.025,0,0.02,0.02,0,0,0-.008.017V8.776a0.08,0.08,0,0,0,0,.019,0.017,0.017,0,0,0,.01.013l0.011,0H33.02l0.012,0,0,0.007,0,0.012a0.1,0.1,0,0,1,0,.013l0,0.012a0.014,0.014,0,0,1-.007.01l0,0H32.763l-0.014,0a0.019,0.019,0,0,0-.008.012,0.028,0.028,0,0,0,0,.011V9.057a0.018,0.018,0,0,0,.006.014l0.013,0h0.287a0.021,0.021,0,0,1,.013.009l0,0.008V9.1a0.063,0.063,0,0,1,0,.012l0,0.009-0.007.009-0.013,0H32.679a0.015,0.015,0,0,1-.012-0.008l0-.013V8.585l0-.011a0.017,0.017,0,0,1,.012-0.008h0.007m0.2-.155h0.03l0.014,0,0.009,0V8.425l-0.007.009-0.009.009-0.008.008-0.008.009L32.9,8.467l-0.007.007,0,0,0,0-0.006.007-0.007.007,0,0.006-0.005,0-0.007.008-0.008.007-0.018.005a0.03,0.03,0,0,1-.02,0l0-.005V8.507l0-.012,0.007-.01,0.014-.023,0.015-.023,0.006-.012,0.009-.01,0.011-.006h0.008Z"/><path class="cls-2" d="M33.216,8.564h0.055l0.011,0.008,0.01,0.012L33.3,8.6l0.007,0.012,0.035,0.055,0.035,0.055L33.39,8.742,33.4,8.761,33.408,8.77l0.009,0.007a0.011,0.011,0,0,0,.01,0l0.005-.006,0.013-.018,0.013-.02,0.035-.051,0.034-.051,0.012-.017,0.011-.017,0.007-.011,0.007-.01a0.031,0.031,0,0,1,.022-0.009h0.045a0.009,0.009,0,0,1,.009.006,0.009,0.009,0,0,1,0,.01l-0.005.009-0.016.024L33.6,8.639l-0.037.056-0.038.056-0.013.019L33.5,8.788l-0.014.019-0.013.021,0,0.008a0.015,0.015,0,0,0,0,.011,0.035,0.035,0,0,0,.006.015l0.01,0.013,0,0.008L33.5,8.89,33.5,8.9l0.008,0.011,0.05,0.073,0.049,0.073,0.018,0.025L33.646,9.11l0.006,0.009a0.011,0.011,0,0,1,0,.011,0.01,0.01,0,0,1-.01.007H33.594a0.036,0.036,0,0,1-.025-0.008l-0.007-.009-0.005-.009-0.012-.018-0.012-.02L33.5,9.019,33.46,8.963l-0.013-.021-0.014-.02-0.006-.007a0.01,0.01,0,0,0-.01,0l-0.009.006L33.4,8.928l-0.012.018-0.012.018-0.047.07L33.282,9.1l-0.012.018a0.031,0.031,0,0,1-.017.013,0.038,0.038,0,0,1-.017,0H33.2l-0.011,0a0.008,0.008,0,0,1,0-.009l0-.01L33.2,9.1l0.011-.016,0.006-.01,0.006-.009c0.013-.019.026-0.038,0.039-0.058s0.025-.039.039-0.057l0.009-.013,0.009-.015,0.013-.02,0.015-.021,0.01-.015a0.042,0.042,0,0,0,.008-0.018,0.014,0.014,0,0,0,0-.011l0-.009-0.013-.018L33.338,8.79l-0.051-.075-0.051-.076-0.016-.024L33.2,8.591l0-.01a0.009,0.009,0,0,1,0-.01l0.01-.006h0.007"/><path class="cls-2" d="M33.836,8.566h0.027l0.013,0,0.008,0a0.026,0.026,0,0,1,.005.016V9.114a0.038,0.038,0,0,1,0,.018l-0.008,0-0.011,0H33.83a0.015,0.015,0,0,1-.014-0.008l0-.013V8.592a0.03,0.03,0,0,1,0-.017,0.02,0.02,0,0,1,.013-0.008h0.005"/><path class="cls-2" d="M34.332,8.552a0.281,0.281,0,0,1,.132.025,0.2,0.2,0,0,1,.083.074,0.181,0.181,0,0,1,.013.024L34.571,8.7l0,0.011a0.018,0.018,0,0,1,0,.013l-0.006.006-0.009,0H34.516A0.017,0.017,0,0,1,34.5,8.728a0.06,0.06,0,0,1-.009-0.018,0.078,0.078,0,0,0-.009-0.02,0.154,0.154,0,0,0-.024-0.031,0.244,0.244,0,0,0-.031-0.024,0.066,0.066,0,0,0-.021-0.01l-0.024-.006-0.02,0H34.317l-0.02,0-0.015,0-0.015,0a0.177,0.177,0,0,0-.1.1l-0.009.024-0.007.025,0,0.01,0,0.01V8.8l0,0.018v0.09l0,0.021,0.005,0.02a0.247,0.247,0,0,0,.035.069,0.165,0.165,0,0,0,.057.047l0.023,0.009L34.3,9.086h0.07l0.016,0,0.015,0a0.159,0.159,0,0,0,.089-0.084A0.283,0.283,0,0,0,34.5,8.96l0-.015,0.005-.014a0.016,0.016,0,0,1,.013-0.007H34.57l0,0a0.015,0.015,0,0,1,.007.012,0.043,0.043,0,0,1,0,.016l-0.009.036a0.147,0.147,0,0,1-.012.032l-0.011.02-0.012.019A0.181,0.181,0,0,1,34.5,9.1a0.2,0.2,0,0,1-.046.029l-0.017.007-0.017.006-0.018,0-0.019,0H34.3l-0.012,0-0.012,0-0.015,0-0.013,0a0.153,0.153,0,0,1-.031-0.012,0.2,0.2,0,0,1-.082-0.062,0.325,0.325,0,0,1-.05-0.1l-0.005-.02,0-.022V8.914l0-.016,0-.015V8.81l0-.013V8.787l0-.011,0.006-.026a0.138,0.138,0,0,1,.007-0.024L34.1,8.7l0.01-.02c0.008-.014.016-0.026,0.024-0.038L34.14,8.64l0.006-.007,0.01-.011,0.011-.01L34.177,8.6l0.01-.008a0.15,0.15,0,0,1,.025-0.015l0.028-.013,0.019-.006,0.02-.005h0.01l0.01,0h0.033"/><path class="cls-2" d="M34.728,8.863h0V8.83l0-.016,0-.016,0-.012V8.774l0.007-.026,0.008-.025a0.293,0.293,0,0,1,.063-0.1,0.25,0.25,0,0,1,.1-0.061l0.018,0,0.018,0h0.014l0.026,0h0.045l0.011,0h0.011l0.016,0,0.016,0L35.1,8.57l0.016,0.006a0.22,0.22,0,0,1,.081.06,0.337,0.337,0,0,1,.053.089l0.007,0.024,0.006,0.025V8.786l0,0.012,0,0.013V8.84l0,0.012,0,0.011v0.01l0,0.029,0,0.01,0,0.01-0.006.025-0.007.024L35.245,9a0.137,0.137,0,0,1-.014.027,0.286,0.286,0,0,1-.053.063,0.257,0.257,0,0,1-.073.043l-0.019.006-0.02.006h-0.01l-0.01,0H35.012a0.3,0.3,0,0,1-.094-0.011,0.259,0.259,0,0,1-.071-0.034L34.824,9.09a0.137,0.137,0,0,1-.02-0.02L34.8,9.063l-0.006-.006-0.01-.014L34.774,9.03l0-.007,0-.007-0.006-.01-0.013-.031,0-.009,0-.009,0-.016,0-.017,0-.008V8.907l0-.011,0-.012V8.863M34.8,8.838h0l0,0.014,0,0.014V8.9l0,0.015,0,0.014,0.007,0.022,0.007,0.02a0.207,0.207,0,0,0,.037.06,0.163,0.163,0,0,0,.056.041,0.2,0.2,0,0,0,.042.013,0.106,0.106,0,0,0,.025,0h0.05L35.06,9.08l0.021-.007A0.157,0.157,0,0,0,35.15,9.02a0.3,0.3,0,0,0,.04-0.081l0-.018,0-.019V8.825l0-.014,0-.014V8.784l0-.017-0.006-.018-0.007-.017L35.17,8.715,35.163,8.7,35.155,8.69a0.169,0.169,0,0,0-.065-0.056,0.106,0.106,0,0,0-.023-0.01l-0.026-.007H35.021a0.023,0.023,0,0,0-.011,0H34.973l-0.021,0a0.072,0.072,0,0,0-.019.006,0.189,0.189,0,0,0-.067.044,0.217,0.217,0,0,0-.043.068l-0.007.022-0.006.023,0,0.01,0,0.011,0,0.027V8.838Zm0.164,0.4V9.2a0.018,0.018,0,0,1,.01-0.014h0.038a0.027,0.027,0,0,1,.015,0,0.02,0.02,0,0,1,.006.017V9.245l0,0.012a0.016,0.016,0,0,1-.013.009H34.987a0.018,0.018,0,0,1-.018-0.011V9.241Z"/><rect class="cls-25" x="30.871" y="9.105" width="0.57" height="0.067"/><polygon class="cls-2" points="21.821 8.754 21.821 8.728 22.048 8.918 22.048 8.945 21.821 9.135 21.821 9.109 21.964 8.932 21.821 8.754"/><g class="cls-26"><rect class="cls-27" x="1.378" y="0.215" width="4.846" height="7.873"/></g><g class="cls-28"><rect class="cls-29" x="4.712" y="0.033" width="6.601" height="8.12"/></g></svg>